<?xml version="1.0" encoding="utf-8" standalone="no"?>
<!DOCTYPE svg PUBLIC "-//W3C//DTD SVG 1.1//EN"
  "http://www.w3.org/Graphics/SVG/1.1/DTD/svg11.dtd">
<svg xmlns:xlink="http://www.w3.org/1999/xlink" width="663.717866pt" height="409.123047pt" viewBox="0 0 663.717866 409.123047" xmlns="http://www.w3.org/2000/svg" version="1.1">
 <metadata>
  <rdf:RDF xmlns:dc="http://purl.org/dc/elements/1.1/" xmlns:cc="http://creativecommons.org/ns#" xmlns:rdf="http://www.w3.org/1999/02/22-rdf-syntax-ns#">
   <cc:Work>
    <dc:type rdf:resource="http://purl.org/dc/dcmitype/StillImage"/>
    <dc:date>2026-08-11T07:20:57.977787</dc:date>
    <dc:format>image/svg+xml</dc:format>
    <dc:creator>
     <cc:Agent>
      <dc:title>Matplotlib v3.11.0, https://matplotlib.org/</dc:title>
     </cc:Agent>
    </dc:creator>
   </cc:Work>
  </rdf:RDF>
 </metadata>
 <defs>
  <style type="text/css">*{stroke-linejoin: round; stroke-linecap: butt}</style>
 </defs>
 <g id="figure_1">
  <g id="patch_1">
   <path d="M 0 409.123047 
L 663.717866 409.123047 
L 663.717866 0 
L 0 0 
z
" style="fill: #ffffff"/>
  </g>
  <g id="axes_1">
   <g id="patch_2">
    <path d="M 59.295234 115.321221 
L 594.975234 115.321221 
L 594.975234 30.68 
L 59.295234 30.68 
z
" style="fill: #ffffff"/>
   </g>
   <g id="patch_3">
    <path d="M 237.855234 115.321221 
L 327.135234 115.321221 
L 327.135234 30.68 
L 237.855234 30.68 
z
" clip-path="url(#p7ed166c7b1)" style="fill: #b8b7b2; opacity: 0.45"/>
   </g>
   <g id="patch_4">
    <path d="M 105.304456 50.726605 
Q 131.944697 50.726605 158.584938 50.726605 
" clip-path="url(#p7ed166c7b1)" style="fill: none; stroke: #eb6834; stroke-width: 1.2; stroke-linecap: round"/>
    <path d="M 109.704456 52.926605 
L 105.304456 50.726605 
L 109.704456 48.526605 
z
" clip-path="url(#p7ed166c7b1)" style="fill: #eb6834; stroke: #eb6834; stroke-width: 1.2; stroke-linecap: round"/>
    <path d="M 154.184938 48.526605 
L 158.584938 50.726605 
L 154.184938 52.926605 
z
" clip-path="url(#p7ed166c7b1)" style="fill: #eb6834; stroke: #eb6834; stroke-width: 1.2; stroke-linecap: round"/>
   </g>
   <g id="matplotlib.axis_1">
    <g id="xtick_1">
     <g id="line2d_1">
      <defs>
       <path id="ma83ca8241d" d="M 0 0 
L 0 3.5 
" style="stroke: #52514e; stroke-width: 0.8"/>
      </defs>
      <g>
       <use xlink:href="#ma83ca8241d" x="59.295234" y="115.321221" style="fill: #52514e; stroke: #52514e; stroke-width: 0.8"/>
      </g>
     </g>
     <g id="text_1">
      <!-- 0 -->
      <g style="fill: #52514e" transform="translate(55.795859 130.678643) scale(0.11 -0.11)">
       <defs>
        <path id="DejaVuSans-13" d="M 2034 4250 
Q 1547 4250 1301 3770 
Q 1056 3291 1056 2328 
Q 1056 1369 1301 889 
Q 1547 409 2034 409 
Q 2525 409 2770 889 
Q 3016 1369 3016 2328 
Q 3016 3291 2770 3770 
Q 2525 4250 2034 4250 
z
M 2034 4750 
Q 2819 4750 3233 4129 
Q 3647 3509 3647 2328 
Q 3647 1150 3233 529 
Q 2819 -91 2034 -91 
Q 1250 -91 836 529 
Q 422 1150 422 2328 
Q 422 3509 836 4129 
Q 1250 4750 2034 4750 
z
" transform="scale(0.015625)"/>
       </defs>
       <use xlink:href="#DejaVuSans-13"/>
      </g>
     </g>
    </g>
    <g id="xtick_2">
     <g id="line2d_2">
      <g>
       <use xlink:href="#ma83ca8241d" x="148.575234" y="115.321221" style="fill: #52514e; stroke: #52514e; stroke-width: 0.8"/>
      </g>
     </g>
     <g id="text_2">
      <!-- 10 -->
      <g style="fill: #52514e" transform="translate(141.576484 130.678643) scale(0.11 -0.11)">
       <defs>
        <path id="DejaVuSans-14" d="M 794 531 
L 1825 531 
L 1825 4091 
L 703 3866 
L 703 4441 
L 1819 4666 
L 2450 4666 
L 2450 531 
L 3481 531 
L 3481 0 
L 794 0 
L 794 531 
z
" transform="scale(0.015625)"/>
       </defs>
       <use xlink:href="#DejaVuSans-14"/>
       <use xlink:href="#DejaVuSans-13" transform="translate(63.625 0)"/>
      </g>
     </g>
    </g>
    <g id="xtick_3">
     <g id="line2d_3">
      <g>
       <use xlink:href="#ma83ca8241d" x="237.855234" y="115.321221" style="fill: #52514e; stroke: #52514e; stroke-width: 0.8"/>
      </g>
     </g>
     <g id="text_3">
      <!-- 20 -->
      <g style="fill: #52514e" transform="translate(230.856484 130.678643) scale(0.11 -0.11)">
       <defs>
        <path id="DejaVuSans-15" d="M 1228 531 
L 3431 531 
L 3431 0 
L 469 0 
L 469 531 
Q 828 903 1448 1529 
Q 2069 2156 2228 2338 
Q 2531 2678 2651 2914 
Q 2772 3150 2772 3378 
Q 2772 3750 2511 3984 
Q 2250 4219 1831 4219 
Q 1534 4219 1204 4116 
Q 875 4013 500 3803 
L 500 4441 
Q 881 4594 1212 4672 
Q 1544 4750 1819 4750 
Q 2544 4750 2975 4387 
Q 3406 4025 3406 3419 
Q 3406 3131 3298 2873 
Q 3191 2616 2906 2266 
Q 2828 2175 2409 1742 
Q 1991 1309 1228 531 
z
" transform="scale(0.015625)"/>
       </defs>
       <use xlink:href="#DejaVuSans-15"/>
       <use xlink:href="#DejaVuSans-13" transform="translate(63.625 0)"/>
      </g>
     </g>
    </g>
    <g id="xtick_4">
     <g id="line2d_4">
      <g>
       <use xlink:href="#ma83ca8241d" x="327.135234" y="115.321221" style="fill: #52514e; stroke: #52514e; stroke-width: 0.8"/>
      </g>
     </g>
     <g id="text_4">
      <!-- 30 -->
      <g style="fill: #52514e" transform="translate(320.136484 130.678643) scale(0.11 -0.11)">
       <defs>
        <path id="DejaVuSans-16" d="M 2597 2516 
Q 3050 2419 3304 2112 
Q 3559 1806 3559 1356 
Q 3559 666 3084 287 
Q 2609 -91 1734 -91 
Q 1441 -91 1130 -33 
Q 819 25 488 141 
L 488 750 
Q 750 597 1062 519 
Q 1375 441 1716 441 
Q 2309 441 2620 675 
Q 2931 909 2931 1356 
Q 2931 1769 2642 2001 
Q 2353 2234 1838 2234 
L 1294 2234 
L 1294 2753 
L 1863 2753 
Q 2328 2753 2575 2939 
Q 2822 3125 2822 3475 
Q 2822 3834 2567 4026 
Q 2313 4219 1838 4219 
Q 1578 4219 1281 4162 
Q 984 4106 628 3988 
L 628 4550 
Q 988 4650 1302 4700 
Q 1616 4750 1894 4750 
Q 2613 4750 3031 4423 
Q 3450 4097 3450 3541 
Q 3450 3153 3228 2886 
Q 3006 2619 2597 2516 
z
" transform="scale(0.015625)"/>
       </defs>
       <use xlink:href="#DejaVuSans-16"/>
       <use xlink:href="#DejaVuSans-13" transform="translate(63.625 0)"/>
      </g>
     </g>
    </g>
    <g id="xtick_5">
     <g id="line2d_5">
      <g>
       <use xlink:href="#ma83ca8241d" x="416.415234" y="115.321221" style="fill: #52514e; stroke: #52514e; stroke-width: 0.8"/>
      </g>
     </g>
     <g id="text_5">
      <!-- 40 -->
      <g style="fill: #52514e" transform="translate(409.416484 130.678643) scale(0.11 -0.11)">
       <defs>
        <path id="DejaVuSans-17" d="M 2419 4116 
L 825 1625 
L 2419 1625 
L 2419 4116 
z
M 2253 4666 
L 3047 4666 
L 3047 1625 
L 3713 1625 
L 3713 1100 
L 3047 1100 
L 3047 0 
L 2419 0 
L 2419 1100 
L 313 1100 
L 313 1709 
L 2253 4666 
z
" transform="scale(0.015625)"/>
       </defs>
       <use xlink:href="#DejaVuSans-17"/>
       <use xlink:href="#DejaVuSans-13" transform="translate(63.625 0)"/>
      </g>
     </g>
    </g>
    <g id="xtick_6">
     <g id="line2d_6">
      <g>
       <use xlink:href="#ma83ca8241d" x="505.695234" y="115.321221" style="fill: #52514e; stroke: #52514e; stroke-width: 0.8"/>
      </g>
     </g>
     <g id="text_6">
      <!-- 50 -->
      <g style="fill: #52514e" transform="translate(498.696484 130.678643) scale(0.11 -0.11)">
       <defs>
        <path id="DejaVuSans-18" d="M 691 4666 
L 3169 4666 
L 3169 4134 
L 1269 4134 
L 1269 2991 
Q 1406 3038 1543 3061 
Q 1681 3084 1819 3084 
Q 2600 3084 3056 2656 
Q 3513 2228 3513 1497 
Q 3513 744 3044 326 
Q 2575 -91 1722 -91 
Q 1428 -91 1123 -41 
Q 819 9 494 109 
L 494 744 
Q 775 591 1075 516 
Q 1375 441 1709 441 
Q 2250 441 2565 725 
Q 2881 1009 2881 1497 
Q 2881 1984 2565 2268 
Q 2250 2553 1709 2553 
Q 1456 2553 1204 2497 
Q 953 2441 691 2322 
L 691 4666 
z
" transform="scale(0.015625)"/>
       </defs>
       <use xlink:href="#DejaVuSans-18"/>
       <use xlink:href="#DejaVuSans-13" transform="translate(63.625 0)"/>
      </g>
     </g>
    </g>
    <g id="xtick_7">
     <g id="line2d_7">
      <g>
       <use xlink:href="#ma83ca8241d" x="594.975234" y="115.321221" style="fill: #52514e; stroke: #52514e; stroke-width: 0.8"/>
      </g>
     </g>
     <g id="text_7">
      <!-- 60 -->
      <g style="fill: #52514e" transform="translate(587.976484 130.678643) scale(0.11 -0.11)">
       <defs>
        <path id="DejaVuSans-19" d="M 2113 2584 
Q 1688 2584 1439 2293 
Q 1191 2003 1191 1497 
Q 1191 994 1439 701 
Q 1688 409 2113 409 
Q 2538 409 2786 701 
Q 3034 994 3034 1497 
Q 3034 2003 2786 2293 
Q 2538 2584 2113 2584 
z
M 3366 4563 
L 3366 3988 
Q 3128 4100 2886 4159 
Q 2644 4219 2406 4219 
Q 1781 4219 1451 3797 
Q 1122 3375 1075 2522 
Q 1259 2794 1537 2939 
Q 1816 3084 2150 3084 
Q 2853 3084 3261 2657 
Q 3669 2231 3669 1497 
Q 3669 778 3244 343 
Q 2819 -91 2113 -91 
Q 1303 -91 875 529 
Q 447 1150 447 2328 
Q 447 3434 972 4092 
Q 1497 4750 2381 4750 
Q 2619 4750 2861 4703 
Q 3103 4656 3366 4563 
z
" transform="scale(0.015625)"/>
       </defs>
       <use xlink:href="#DejaVuSans-19"/>
       <use xlink:href="#DejaVuSans-13" transform="translate(63.625 0)"/>
      </g>
     </g>
    </g>
    <g id="text_8">
     <!-- Time (s) -->
     <g style="fill: #0b0b0b" transform="translate(297.217969 147.19919) scale(0.13 -0.13)">
      <defs>
       <path id="DejaVuSans-Bold-37" d="M 31 4666 
L 4331 4666 
L 4331 3756 
L 2784 3756 
L 2784 0 
L 1581 0 
L 1581 3756 
L 31 3756 
L 31 4666 
z
" transform="scale(0.015625)"/>
       <path id="DejaVuSans-Bold-4c" d="M 538 3500 
L 1656 3500 
L 1656 0 
L 538 0 
L 538 3500 
z
M 538 4863 
L 1656 4863 
L 1656 3950 
L 538 3950 
L 538 4863 
z
" transform="scale(0.015625)"/>
       <path id="DejaVuSans-Bold-50" d="M 3781 2919 
Q 3994 3244 4286 3414 
Q 4578 3584 4928 3584 
Q 5531 3584 5847 3212 
Q 6163 2841 6163 2131 
L 6163 0 
L 5038 0 
L 5038 1825 
Q 5041 1866 5042 1909 
Q 5044 1953 5044 2034 
Q 5044 2406 4934 2573 
Q 4825 2741 4581 2741 
Q 4263 2741 4089 2478 
Q 3916 2216 3909 1719 
L 3909 0 
L 2784 0 
L 2784 1825 
Q 2784 2406 2684 2573 
Q 2584 2741 2328 2741 
Q 2006 2741 1831 2477 
Q 1656 2213 1656 1722 
L 1656 0 
L 531 0 
L 531 3500 
L 1656 3500 
L 1656 2988 
Q 1863 3284 2130 3434 
Q 2397 3584 2719 3584 
Q 3081 3584 3359 3409 
Q 3638 3234 3781 2919 
z
" transform="scale(0.015625)"/>
       <path id="DejaVuSans-Bold-48" d="M 4031 1759 
L 4031 1441 
L 1416 1441 
Q 1456 1047 1700 850 
Q 1944 653 2381 653 
Q 2734 653 3104 758 
Q 3475 863 3866 1075 
L 3866 213 
Q 3469 63 3072 -14 
Q 2675 -91 2278 -91 
Q 1328 -91 801 392 
Q 275 875 275 1747 
Q 275 2603 792 3093 
Q 1309 3584 2216 3584 
Q 3041 3584 3536 3087 
Q 4031 2591 4031 1759 
z
M 2881 2131 
Q 2881 2450 2695 2645 
Q 2509 2841 2209 2841 
Q 1884 2841 1681 2658 
Q 1478 2475 1428 2131 
L 2881 2131 
z
" transform="scale(0.015625)"/>
       <path id="DejaVuSans-Bold-3" transform="scale(0.015625)"/>
       <path id="DejaVuSans-Bold-b" d="M 2413 -844 
L 1484 -844 
Q 1006 -72 778 623 
Q 550 1319 550 2003 
Q 550 2688 779 3389 
Q 1009 4091 1484 4856 
L 2413 4856 
Q 2013 4116 1813 3408 
Q 1613 2700 1613 2009 
Q 1613 1319 1811 609 
Q 2009 -100 2413 -844 
z
" transform="scale(0.015625)"/>
       <path id="DejaVuSans-Bold-56" d="M 3272 3391 
L 3272 2541 
Q 2913 2691 2578 2766 
Q 2244 2841 1947 2841 
Q 1628 2841 1473 2761 
Q 1319 2681 1319 2516 
Q 1319 2381 1436 2309 
Q 1553 2238 1856 2203 
L 2053 2175 
Q 2913 2066 3209 1816 
Q 3506 1566 3506 1031 
Q 3506 472 3093 190 
Q 2681 -91 1863 -91 
Q 1516 -91 1145 -36 
Q 775 19 384 128 
L 384 978 
Q 719 816 1070 734 
Q 1422 653 1784 653 
Q 2113 653 2278 743 
Q 2444 834 2444 1013 
Q 2444 1163 2330 1236 
Q 2216 1309 1875 1350 
L 1678 1375 
Q 931 1469 631 1722 
Q 331 1975 331 2491 
Q 331 3047 712 3315 
Q 1094 3584 1881 3584 
Q 2191 3584 2531 3537 
Q 2872 3491 3272 3391 
z
" transform="scale(0.015625)"/>
       <path id="DejaVuSans-Bold-c" d="M 513 -844 
Q 913 -100 1113 609 
Q 1313 1319 1313 2009 
Q 1313 2700 1113 3408 
Q 913 4116 513 4856 
L 1441 4856 
Q 1916 4091 2145 3389 
Q 2375 2688 2375 2003 
Q 2375 1319 2147 623 
Q 1919 -72 1441 -844 
L 513 -844 
z
" transform="scale(0.015625)"/>
      </defs>
      <use xlink:href="#DejaVuSans-Bold-37"/>
      <use xlink:href="#DejaVuSans-Bold-4c" transform="translate(68.21875 0)"/>
      <use xlink:href="#DejaVuSans-Bold-50" transform="translate(102.5 0)"/>
      <use xlink:href="#DejaVuSans-Bold-48" transform="translate(206.703125 0)"/>
      <use xlink:href="#DejaVuSans-Bold-3" transform="translate(274.53125 0)"/>
      <use xlink:href="#DejaVuSans-Bold-b" transform="translate(309.34375 0)"/>
      <use xlink:href="#DejaVuSans-Bold-56" transform="translate(355.046875 0)"/>
      <use xlink:href="#DejaVuSans-Bold-c" transform="translate(414.5625 0)"/>
     </g>
    </g>
   </g>
   <g id="matplotlib.axis_2"/>
   <g id="LineCollection_1">
    <path d="M 68.901984 115.321221 
L 68.901984 70.77321 
" clip-path="url(#p7ed166c7b1)" style="fill: none; stroke: #0b0b0b; stroke-width: 1.6"/>
    <path d="M 94.739193 115.321221 
L 94.739193 70.77321 
" clip-path="url(#p7ed166c7b1)" style="fill: none; stroke: #0b0b0b; stroke-width: 1.6"/>
    <path d="M 103.962815 115.321221 
L 103.962815 70.77321 
" clip-path="url(#p7ed166c7b1)" style="fill: none; stroke: #0b0b0b; stroke-width: 1.6"/>
    <path d="M 159.926579 115.321221 
L 159.926579 70.77321 
" clip-path="url(#p7ed166c7b1)" style="fill: none; stroke: #0b0b0b; stroke-width: 1.6"/>
    <path d="M 174.016418 115.321221 
L 174.016418 70.77321 
" clip-path="url(#p7ed166c7b1)" style="fill: none; stroke: #0b0b0b; stroke-width: 1.6"/>
    <path d="M 179.289719 115.321221 
L 179.289719 70.77321 
" clip-path="url(#p7ed166c7b1)" style="fill: none; stroke: #0b0b0b; stroke-width: 1.6"/>
    <path d="M 198.733709 115.321221 
L 198.733709 70.77321 
" clip-path="url(#p7ed166c7b1)" style="fill: none; stroke: #0b0b0b; stroke-width: 1.6"/>
    <path d="M 199.998037 115.321221 
L 199.998037 70.77321 
" clip-path="url(#p7ed166c7b1)" style="fill: none; stroke: #0b0b0b; stroke-width: 1.6"/>
    <path d="M 200.482464 115.321221 
L 200.482464 70.77321 
" clip-path="url(#p7ed166c7b1)" style="fill: none; stroke: #0b0b0b; stroke-width: 1.6"/>
    <path d="M 210.254891 115.321221 
L 210.254891 70.77321 
" clip-path="url(#p7ed166c7b1)" style="fill: none; stroke: #0b0b0b; stroke-width: 1.6"/>
    <path d="M 214.532784 115.321221 
L 214.532784 70.77321 
" clip-path="url(#p7ed166c7b1)" style="fill: none; stroke: #0b0b0b; stroke-width: 1.6"/>
    <path d="M 220.737747 115.321221 
L 220.737747 70.77321 
" clip-path="url(#p7ed166c7b1)" style="fill: none; stroke: #0b0b0b; stroke-width: 1.6"/>
    <path d="M 222.200093 115.321221 
L 222.200093 70.77321 
" clip-path="url(#p7ed166c7b1)" style="fill: none; stroke: #0b0b0b; stroke-width: 1.6"/>
    <path d="M 234.420795 115.321221 
L 234.420795 70.77321 
" clip-path="url(#p7ed166c7b1)" style="fill: none; stroke: #0b0b0b; stroke-width: 1.6"/>
    <path d="M 267.690293 115.321221 
L 267.690293 70.77321 
" clip-path="url(#p7ed166c7b1)" style="fill: none; stroke: #0b0b0b; stroke-width: 1.6"/>
    <path d="M 281.991169 115.321221 
L 281.991169 70.77321 
" clip-path="url(#p7ed166c7b1)" style="fill: none; stroke: #0b0b0b; stroke-width: 1.6"/>
    <path d="M 284.978873 115.321221 
L 284.978873 70.77321 
" clip-path="url(#p7ed166c7b1)" style="fill: none; stroke: #0b0b0b; stroke-width: 1.6"/>
    <path d="M 290.07932 115.321221 
L 290.07932 70.77321 
" clip-path="url(#p7ed166c7b1)" style="fill: none; stroke: #0b0b0b; stroke-width: 1.6"/>
    <path d="M 304.782012 115.321221 
L 304.782012 70.77321 
" clip-path="url(#p7ed166c7b1)" style="fill: none; stroke: #0b0b0b; stroke-width: 1.6"/>
    <path d="M 359.475474 115.321221 
L 359.475474 70.77321 
" clip-path="url(#p7ed166c7b1)" style="fill: none; stroke: #0b0b0b; stroke-width: 1.6"/>
    <path d="M 376.672303 115.321221 
L 376.672303 70.77321 
" clip-path="url(#p7ed166c7b1)" style="fill: none; stroke: #0b0b0b; stroke-width: 1.6"/>
    <path d="M 377.497936 115.321221 
L 377.497936 70.77321 
" clip-path="url(#p7ed166c7b1)" style="fill: none; stroke: #0b0b0b; stroke-width: 1.6"/>
    <path d="M 387.449759 115.321221 
L 387.449759 70.77321 
" clip-path="url(#p7ed166c7b1)" style="fill: none; stroke: #0b0b0b; stroke-width: 1.6"/>
    <path d="M 396.659571 115.321221 
L 396.659571 70.77321 
" clip-path="url(#p7ed166c7b1)" style="fill: none; stroke: #0b0b0b; stroke-width: 1.6"/>
    <path d="M 396.85203 115.321221 
L 396.85203 70.77321 
" clip-path="url(#p7ed166c7b1)" style="fill: none; stroke: #0b0b0b; stroke-width: 1.6"/>
    <path d="M 408.682091 115.321221 
L 408.682091 70.77321 
" clip-path="url(#p7ed166c7b1)" style="fill: none; stroke: #0b0b0b; stroke-width: 1.6"/>
    <path d="M 413.370496 115.321221 
L 413.370496 70.77321 
" clip-path="url(#p7ed166c7b1)" style="fill: none; stroke: #0b0b0b; stroke-width: 1.6"/>
    <path d="M 415.980874 115.321221 
L 415.980874 70.77321 
" clip-path="url(#p7ed166c7b1)" style="fill: none; stroke: #0b0b0b; stroke-width: 1.6"/>
    <path d="M 443.36646 115.321221 
L 443.36646 70.77321 
" clip-path="url(#p7ed166c7b1)" style="fill: none; stroke: #0b0b0b; stroke-width: 1.6"/>
    <path d="M 459.931297 115.321221 
L 459.931297 70.77321 
" clip-path="url(#p7ed166c7b1)" style="fill: none; stroke: #0b0b0b; stroke-width: 1.6"/>
    <path d="M 483.860426 115.321221 
L 483.860426 70.77321 
" clip-path="url(#p7ed166c7b1)" style="fill: none; stroke: #0b0b0b; stroke-width: 1.6"/>
    <path d="M 487.558695 115.321221 
L 487.558695 70.77321 
" clip-path="url(#p7ed166c7b1)" style="fill: none; stroke: #0b0b0b; stroke-width: 1.6"/>
    <path d="M 492.916073 115.321221 
L 492.916073 70.77321 
" clip-path="url(#p7ed166c7b1)" style="fill: none; stroke: #0b0b0b; stroke-width: 1.6"/>
    <path d="M 500.209636 115.321221 
L 500.209636 70.77321 
" clip-path="url(#p7ed166c7b1)" style="fill: none; stroke: #0b0b0b; stroke-width: 1.6"/>
    <path d="M 503.887052 115.321221 
L 503.887052 70.77321 
" clip-path="url(#p7ed166c7b1)" style="fill: none; stroke: #0b0b0b; stroke-width: 1.6"/>
    <path d="M 516.346387 115.321221 
L 516.346387 70.77321 
" clip-path="url(#p7ed166c7b1)" style="fill: none; stroke: #0b0b0b; stroke-width: 1.6"/>
    <path d="M 533.078899 115.321221 
L 533.078899 70.77321 
" clip-path="url(#p7ed166c7b1)" style="fill: none; stroke: #0b0b0b; stroke-width: 1.6"/>
    <path d="M 584.10593 115.321221 
L 584.10593 70.77321 
" clip-path="url(#p7ed166c7b1)" style="fill: none; stroke: #0b0b0b; stroke-width: 1.6"/>
   </g>
   <g id="patch_5">
    <path d="M 59.295234 115.321221 
L 594.975234 115.321221 
" style="fill: none; stroke: #52514e; stroke-width: 1.1; stroke-linejoin: miter; stroke-linecap: square"/>
   </g>
   <g id="text_9">
    <!-- $k = 5$ in 10 s -->
    <g style="fill: #52514e" transform="translate(246.580234 59.22103) scale(0.11 -0.11)">
     <defs>
      <path id="DejaVuSans-Oblique-4e" d="M 1172 4863 
L 1747 4863 
L 1197 2028 
L 3169 3500 
L 3916 3500 
L 1716 1825 
L 3322 0 
L 2625 0 
L 1131 1709 
L 800 0 
L 225 0 
L 1172 4863 
z
" transform="scale(0.015625)"/>
      <path id="DejaVuSans-20" d="M 678 2906 
L 4684 2906 
L 4684 2381 
L 678 2381 
L 678 2906 
z
M 678 1631 
L 4684 1631 
L 4684 1100 
L 678 1100 
L 678 1631 
z
" transform="scale(0.015625)"/>
      <path id="DejaVuSans-Bold-51" d="M 4056 2131 
L 4056 0 
L 2931 0 
L 2931 347 
L 2931 1631 
Q 2931 2084 2911 2256 
Q 2891 2428 2841 2509 
Q 2775 2619 2662 2680 
Q 2550 2741 2406 2741 
Q 2056 2741 1856 2470 
Q 1656 2200 1656 1722 
L 1656 0 
L 538 0 
L 538 3500 
L 1656 3500 
L 1656 2988 
Q 1909 3294 2193 3439 
Q 2478 3584 2822 3584 
Q 3428 3584 3742 3212 
Q 4056 2841 4056 2131 
z
" transform="scale(0.015625)"/>
      <path id="DejaVuSans-Bold-14" d="M 750 831 
L 1813 831 
L 1813 3847 
L 722 3622 
L 722 4441 
L 1806 4666 
L 2950 4666 
L 2950 831 
L 4013 831 
L 4013 0 
L 750 0 
L 750 831 
z
" transform="scale(0.015625)"/>
      <path id="DejaVuSans-Bold-13" d="M 2944 2338 
Q 2944 3213 2780 3570 
Q 2616 3928 2228 3928 
Q 1841 3928 1675 3570 
Q 1509 3213 1509 2338 
Q 1509 1453 1675 1090 
Q 1841 728 2228 728 
Q 2613 728 2778 1090 
Q 2944 1453 2944 2338 
z
M 4147 2328 
Q 4147 1169 3647 539 
Q 3147 -91 2228 -91 
Q 1306 -91 806 539 
Q 306 1169 306 2328 
Q 306 3491 806 4120 
Q 1306 4750 2228 4750 
Q 3147 4750 3647 4120 
Q 4147 3491 4147 2328 
z
" transform="scale(0.015625)"/>
     </defs>
     <use xlink:href="#DejaVuSans-Oblique-4e" transform="translate(0 0.015625)"/>
     <use xlink:href="#DejaVuSans-20" transform="translate(77.392578 0.015625)"/>
     <use xlink:href="#DejaVuSans-18" transform="translate(180.664062 0.015625)"/>
     <use xlink:href="#DejaVuSans-Bold-3" transform="translate(244.287109 0.015625)"/>
     <use xlink:href="#DejaVuSans-Bold-4c" transform="translate(279.101562 0.015625)"/>
     <use xlink:href="#DejaVuSans-Bold-51" transform="translate(313.378906 0.015625)"/>
     <use xlink:href="#DejaVuSans-Bold-3" transform="translate(384.570312 0.015625)"/>
     <use xlink:href="#DejaVuSans-Bold-14" transform="translate(419.384766 0.015625)"/>
     <use xlink:href="#DejaVuSans-Bold-13" transform="translate(488.964844 0.015625)"/>
     <use xlink:href="#DejaVuSans-Bold-3" transform="translate(558.544922 0.015625)"/>
     <use xlink:href="#DejaVuSans-Bold-56" transform="translate(593.359375 0.015625)"/>
    </g>
   </g>
   <g id="text_10">
    <!-- $\tau$ -->
    <g style="fill: #eb6834" transform="translate(128.284697 43.388991) scale(0.12 -0.12)">
     <defs>
      <path id="DejaVuSans-Oblique-358" d="M 2103 638 
Q 2188 488 2525 488 
L 2800 488 
L 2706 0 
L 2363 0 
Q 1800 0 1600 300 
Q 1403 606 1534 1269 
L 1856 2925 
L 541 2925 
L 653 3500 
L 3881 3500 
L 3769 2925 
L 2444 2925 
L 2113 1234 
Q 2025 781 2103 638 
z
" transform="scale(0.015625)"/>
     </defs>
     <use xlink:href="#DejaVuSans-Oblique-358" transform="translate(0 0.3125)"/>
    </g>
   </g>
   <g id="text_11">
    <!-- A.  One realization at $\lambda = 0.5$ responses per second -->
    <g style="fill: #0b0b0b" transform="translate(59.295234 20.68) scale(0.13 -0.13)">
     <defs>
      <path id="DejaVuSans-Bold-24" d="M 3419 850 
L 1538 850 
L 1241 0 
L 31 0 
L 1759 4666 
L 3194 4666 
L 4922 0 
L 3713 0 
L 3419 850 
z
M 1838 1716 
L 3116 1716 
L 2478 3572 
L 1838 1716 
z
" transform="scale(0.015625)"/>
      <path id="DejaVuSans-Bold-11" d="M 653 1209 
L 1778 1209 
L 1778 0 
L 653 0 
L 653 1209 
z
" transform="scale(0.015625)"/>
      <path id="DejaVuSans-Bold-32" d="M 2719 3878 
Q 2169 3878 1866 3472 
Q 1563 3066 1563 2328 
Q 1563 1594 1866 1187 
Q 2169 781 2719 781 
Q 3272 781 3575 1187 
Q 3878 1594 3878 2328 
Q 3878 3066 3575 3472 
Q 3272 3878 2719 3878 
z
M 2719 4750 
Q 3844 4750 4481 4106 
Q 5119 3463 5119 2328 
Q 5119 1197 4481 553 
Q 3844 -91 2719 -91 
Q 1597 -91 958 553 
Q 319 1197 319 2328 
Q 319 3463 958 4106 
Q 1597 4750 2719 4750 
z
" transform="scale(0.015625)"/>
      <path id="DejaVuSans-Bold-55" d="M 3138 2547 
Q 2991 2616 2845 2648 
Q 2700 2681 2553 2681 
Q 2122 2681 1889 2404 
Q 1656 2128 1656 1613 
L 1656 0 
L 538 0 
L 538 3500 
L 1656 3500 
L 1656 2925 
Q 1872 3269 2151 3426 
Q 2431 3584 2822 3584 
Q 2878 3584 2943 3579 
Q 3009 3575 3134 3559 
L 3138 2547 
z
" transform="scale(0.015625)"/>
      <path id="DejaVuSans-Bold-44" d="M 2106 1575 
Q 1756 1575 1579 1456 
Q 1403 1338 1403 1106 
Q 1403 894 1545 773 
Q 1688 653 1941 653 
Q 2256 653 2472 879 
Q 2688 1106 2688 1447 
L 2688 1575 
L 2106 1575 
z
M 3816 1997 
L 3816 0 
L 2688 0 
L 2688 519 
Q 2463 200 2181 54 
Q 1900 -91 1497 -91 
Q 953 -91 614 226 
Q 275 544 275 1050 
Q 275 1666 698 1953 
Q 1122 2241 2028 2241 
L 2688 2241 
L 2688 2328 
Q 2688 2594 2478 2717 
Q 2269 2841 1825 2841 
Q 1466 2841 1156 2769 
Q 847 2697 581 2553 
L 581 3406 
Q 941 3494 1303 3539 
Q 1666 3584 2028 3584 
Q 2975 3584 3395 3211 
Q 3816 2838 3816 1997 
z
" transform="scale(0.015625)"/>
      <path id="DejaVuSans-Bold-4f" d="M 538 4863 
L 1656 4863 
L 1656 0 
L 538 0 
L 538 4863 
z
" transform="scale(0.015625)"/>
      <path id="DejaVuSans-Bold-5d" d="M 366 3500 
L 3419 3500 
L 3419 2719 
L 1575 800 
L 3419 800 
L 3419 0 
L 288 0 
L 288 781 
L 2131 2700 
L 366 2700 
L 366 3500 
z
" transform="scale(0.015625)"/>
      <path id="DejaVuSans-Bold-57" d="M 1759 4494 
L 1759 3500 
L 2913 3500 
L 2913 2700 
L 1759 2700 
L 1759 1216 
Q 1759 972 1856 886 
Q 1953 800 2241 800 
L 2816 800 
L 2816 0 
L 1856 0 
Q 1194 0 917 276 
Q 641 553 641 1216 
L 641 2700 
L 84 2700 
L 84 3500 
L 641 3500 
L 641 4494 
L 1759 4494 
z
" transform="scale(0.015625)"/>
      <path id="DejaVuSans-Bold-52" d="M 2203 2784 
Q 1831 2784 1636 2517 
Q 1441 2250 1441 1747 
Q 1441 1244 1636 976 
Q 1831 709 2203 709 
Q 2569 709 2762 976 
Q 2956 1244 2956 1747 
Q 2956 2250 2762 2517 
Q 2569 2784 2203 2784 
z
M 2203 3584 
Q 3106 3584 3614 3096 
Q 4122 2609 4122 1747 
Q 4122 884 3614 396 
Q 3106 -91 2203 -91 
Q 1297 -91 786 396 
Q 275 884 275 1747 
Q 275 2609 786 3096 
Q 1297 3584 2203 3584 
z
" transform="scale(0.015625)"/>
      <path id="DejaVuSans-Oblique-34f" d="M 2350 4316 
L 3125 0 
L 2516 0 
L 2038 2588 
L 328 0 
L -281 0 
L 1903 3356 
L 1794 3975 
Q 1725 4369 1391 4369 
L 1091 4369 
L 1184 4863 
L 1550 4856 
Q 2253 4847 2350 4316 
z
" transform="scale(0.015625)"/>
      <path id="DejaVuSans-11" d="M 684 794 
L 1344 794 
L 1344 0 
L 684 0 
L 684 794 
z
" transform="scale(0.015625)"/>
      <path id="DejaVuSans-Bold-53" d="M 1656 506 
L 1656 -1331 
L 538 -1331 
L 538 3500 
L 1656 3500 
L 1656 2988 
Q 1888 3294 2169 3439 
Q 2450 3584 2816 3584 
Q 3463 3584 3878 3070 
Q 4294 2556 4294 1747 
Q 4294 938 3878 423 
Q 3463 -91 2816 -91 
Q 2450 -91 2169 54 
Q 1888 200 1656 506 
z
M 2400 2772 
Q 2041 2772 1848 2508 
Q 1656 2244 1656 1747 
Q 1656 1250 1848 986 
Q 2041 722 2400 722 
Q 2759 722 2948 984 
Q 3138 1247 3138 1747 
Q 3138 2247 2948 2509 
Q 2759 2772 2400 2772 
z
" transform="scale(0.015625)"/>
      <path id="DejaVuSans-Bold-46" d="M 3366 3391 
L 3366 2478 
Q 3138 2634 2908 2709 
Q 2678 2784 2431 2784 
Q 1963 2784 1702 2511 
Q 1441 2238 1441 1747 
Q 1441 1256 1702 982 
Q 1963 709 2431 709 
Q 2694 709 2930 787 
Q 3166 866 3366 1019 
L 3366 103 
Q 3103 6 2833 -42 
Q 2563 -91 2291 -91 
Q 1344 -91 809 395 
Q 275 881 275 1747 
Q 275 2613 809 3098 
Q 1344 3584 2291 3584 
Q 2566 3584 2833 3536 
Q 3100 3488 3366 3391 
z
" transform="scale(0.015625)"/>
      <path id="DejaVuSans-Bold-47" d="M 2919 2988 
L 2919 4863 
L 4044 4863 
L 4044 0 
L 2919 0 
L 2919 506 
Q 2688 197 2409 53 
Q 2131 -91 1766 -91 
Q 1119 -91 703 423 
Q 288 938 288 1747 
Q 288 2556 703 3070 
Q 1119 3584 1766 3584 
Q 2128 3584 2408 3439 
Q 2688 3294 2919 2988 
z
M 2181 722 
Q 2541 722 2730 984 
Q 2919 1247 2919 1747 
Q 2919 2247 2730 2509 
Q 2541 2772 2181 2772 
Q 1825 2772 1636 2509 
Q 1447 2247 1447 1747 
Q 1447 1247 1636 984 
Q 1825 722 2181 722 
z
" transform="scale(0.015625)"/>
     </defs>
     <use xlink:href="#DejaVuSans-Bold-24" transform="translate(0 0.015625)"/>
     <use xlink:href="#DejaVuSans-Bold-11" transform="translate(79.392578 0.015625)"/>
     <use xlink:href="#DejaVuSans-Bold-3" transform="translate(117.380859 0.015625)"/>
     <use xlink:href="#DejaVuSans-Bold-3" transform="translate(152.195312 0.015625)"/>
     <use xlink:href="#DejaVuSans-Bold-32" transform="translate(187.009766 0.015625)"/>
     <use xlink:href="#DejaVuSans-Bold-51" transform="translate(272.019531 0.015625)"/>
     <use xlink:href="#DejaVuSans-Bold-48" transform="translate(343.210938 0.015625)"/>
     <use xlink:href="#DejaVuSans-Bold-3" transform="translate(411.033203 0.015625)"/>
     <use xlink:href="#DejaVuSans-Bold-55" transform="translate(445.847656 0.015625)"/>
     <use xlink:href="#DejaVuSans-Bold-48" transform="translate(495.164062 0.015625)"/>
     <use xlink:href="#DejaVuSans-Bold-44" transform="translate(562.986328 0.015625)"/>
     <use xlink:href="#DejaVuSans-Bold-4f" transform="translate(630.466797 0.015625)"/>
     <use xlink:href="#DejaVuSans-Bold-4c" transform="translate(664.744141 0.015625)"/>
     <use xlink:href="#DejaVuSans-Bold-5d" transform="translate(699.021484 0.015625)"/>
     <use xlink:href="#DejaVuSans-Bold-44" transform="translate(757.224609 0.015625)"/>
     <use xlink:href="#DejaVuSans-Bold-57" transform="translate(824.705078 0.015625)"/>
     <use xlink:href="#DejaVuSans-Bold-4c" transform="translate(872.507812 0.015625)"/>
     <use xlink:href="#DejaVuSans-Bold-52" transform="translate(906.785156 0.015625)"/>
     <use xlink:href="#DejaVuSans-Bold-51" transform="translate(975.486328 0.015625)"/>
     <use xlink:href="#DejaVuSans-Bold-3" transform="translate(1046.677734 0.015625)"/>
     <use xlink:href="#DejaVuSans-Bold-44" transform="translate(1081.492188 0.015625)"/>
     <use xlink:href="#DejaVuSans-Bold-57" transform="translate(1148.972656 0.015625)"/>
     <use xlink:href="#DejaVuSans-Bold-3" transform="translate(1196.775391 0.015625)"/>
     <use xlink:href="#DejaVuSans-Oblique-34f" transform="translate(1231.589844 0.015625)"/>
     <use xlink:href="#DejaVuSans-20" transform="translate(1310.251953 0.015625)"/>
     <use xlink:href="#DejaVuSans-13" transform="translate(1413.523438 0.015625)"/>
     <use xlink:href="#DejaVuSans-11" transform="translate(1477.146484 0.015625)"/>
     <use xlink:href="#DejaVuSans-18" transform="translate(1508.933594 0.015625)"/>
     <use xlink:href="#DejaVuSans-Bold-3" transform="translate(1572.556641 0.015625)"/>
     <use xlink:href="#DejaVuSans-Bold-55" transform="translate(1607.371094 0.015625)"/>
     <use xlink:href="#DejaVuSans-Bold-48" transform="translate(1656.6875 0.015625)"/>
     <use xlink:href="#DejaVuSans-Bold-56" transform="translate(1724.509766 0.015625)"/>
     <use xlink:href="#DejaVuSans-Bold-53" transform="translate(1784.03125 0.015625)"/>
     <use xlink:href="#DejaVuSans-Bold-52" transform="translate(1855.613281 0.015625)"/>
     <use xlink:href="#DejaVuSans-Bold-51" transform="translate(1924.314453 0.015625)"/>
     <use xlink:href="#DejaVuSans-Bold-56" transform="translate(1995.505859 0.015625)"/>
     <use xlink:href="#DejaVuSans-Bold-48" transform="translate(2055.027344 0.015625)"/>
     <use xlink:href="#DejaVuSans-Bold-56" transform="translate(2122.849609 0.015625)"/>
     <use xlink:href="#DejaVuSans-Bold-3" transform="translate(2182.371094 0.015625)"/>
     <use xlink:href="#DejaVuSans-Bold-53" transform="translate(2217.185547 0.015625)"/>
     <use xlink:href="#DejaVuSans-Bold-48" transform="translate(2288.767578 0.015625)"/>
     <use xlink:href="#DejaVuSans-Bold-55" transform="translate(2356.589844 0.015625)"/>
     <use xlink:href="#DejaVuSans-Bold-3" transform="translate(2405.90625 0.015625)"/>
     <use xlink:href="#DejaVuSans-Bold-56" transform="translate(2440.720703 0.015625)"/>
     <use xlink:href="#DejaVuSans-Bold-48" transform="translate(2500.242188 0.015625)"/>
     <use xlink:href="#DejaVuSans-Bold-46" transform="translate(2568.064453 0.015625)"/>
     <use xlink:href="#DejaVuSans-Bold-52" transform="translate(2627.341797 0.015625)"/>
     <use xlink:href="#DejaVuSans-Bold-51" transform="translate(2696.042969 0.015625)"/>
     <use xlink:href="#DejaVuSans-Bold-47" transform="translate(2767.234375 0.015625)"/>
    </g>
   </g>
  </g>
  <g id="axes_2">
   <g id="patch_6">
    <path d="M 59.295234 363.32 
L 294.242603 363.32 
L 294.242603 194.037557 
L 59.295234 194.037557 
z
" style="fill: #ffffff"/>
   </g>
   <g id="patch_7">
    <path d="M 66.008016 363.32 
L 76.992569 363.32 
L 76.992569 357.616919 
L 66.008016 357.616919 
z
" clip-path="url(#pcf2b39dd7d)" style="fill: #b8b7b2; stroke: #52514e; stroke-width: 0.5; stroke-linejoin: miter"/>
   </g>
   <g id="patch_8">
    <path d="M 81.264339 363.32 
L 92.248891 363.32 
L 92.248891 334.804597 
L 81.264339 334.804597 
z
" clip-path="url(#pcf2b39dd7d)" style="fill: #b8b7b2; stroke: #52514e; stroke-width: 0.5; stroke-linejoin: miter"/>
   </g>
   <g id="patch_9">
    <path d="M 96.520662 363.32 
L 107.505214 363.32 
L 107.505214 292.031492 
L 96.520662 292.031492 
z
" clip-path="url(#pcf2b39dd7d)" style="fill: #b8b7b2; stroke: #52514e; stroke-width: 0.5; stroke-linejoin: miter"/>
   </g>
   <g id="patch_10">
    <path d="M 111.776984 363.32 
L 122.761536 363.32 
L 122.761536 244.50582 
L 111.776984 244.50582 
z
" clip-path="url(#pcf2b39dd7d)" style="fill: #b8b7b2; stroke: #52514e; stroke-width: 0.5; stroke-linejoin: miter"/>
   </g>
   <g id="patch_11">
    <path d="M 127.033307 363.32 
L 138.017859 363.32 
L 138.017859 214.802275 
L 127.033307 214.802275 
z
" clip-path="url(#pcf2b39dd7d)" style="fill: #b8b7b2; stroke: #52514e; stroke-width: 0.5; stroke-linejoin: miter"/>
   </g>
   <g id="patch_12">
    <path d="M 142.289629 363.32 
L 153.274182 363.32 
L 153.274182 214.802275 
L 142.289629 214.802275 
z
" clip-path="url(#pcf2b39dd7d)" style="fill: #eb6834; stroke: #52514e; stroke-width: 0.5; stroke-linejoin: miter"/>
   </g>
   <g id="patch_13">
    <path d="M 157.545952 363.32 
L 168.530504 363.32 
L 168.530504 239.555229 
L 157.545952 239.555229 
z
" clip-path="url(#pcf2b39dd7d)" style="fill: #b8b7b2; stroke: #52514e; stroke-width: 0.5; stroke-linejoin: miter"/>
   </g>
   <g id="patch_14">
    <path d="M 172.802275 363.32 
L 183.786827 363.32 
L 183.786827 274.916592 
L 172.802275 274.916592 
z
" clip-path="url(#pcf2b39dd7d)" style="fill: #b8b7b2; stroke: #52514e; stroke-width: 0.5; stroke-linejoin: miter"/>
   </g>
   <g id="patch_15">
    <path d="M 188.058597 363.32 
L 199.04315 363.32 
L 199.04315 308.06787 
L 188.058597 308.06787 
z
" clip-path="url(#pcf2b39dd7d)" style="fill: #b8b7b2; stroke: #52514e; stroke-width: 0.5; stroke-linejoin: miter"/>
   </g>
   <g id="patch_16">
    <path d="M 203.31492 363.32 
L 214.299472 363.32 
L 214.299472 332.624372 
L 203.31492 332.624372 
z
" clip-path="url(#pcf2b39dd7d)" style="fill: #b8b7b2; stroke: #52514e; stroke-width: 0.5; stroke-linejoin: miter"/>
   </g>
   <g id="patch_17">
    <path d="M 218.571243 363.32 
L 229.555795 363.32 
L 229.555795 347.972186 
L 218.571243 347.972186 
z
" clip-path="url(#pcf2b39dd7d)" style="fill: #b8b7b2; stroke: #52514e; stroke-width: 0.5; stroke-linejoin: miter"/>
   </g>
   <g id="patch_18">
    <path d="M 233.827565 363.32 
L 244.812117 363.32 
L 244.812117 356.343721 
L 233.827565 356.343721 
z
" clip-path="url(#pcf2b39dd7d)" style="fill: #b8b7b2; stroke: #52514e; stroke-width: 0.5; stroke-linejoin: miter"/>
   </g>
   <g id="patch_19">
    <path d="M 249.083888 363.32 
L 260.06844 363.32 
L 260.06844 360.413217 
L 249.083888 360.413217 
z
" clip-path="url(#pcf2b39dd7d)" style="fill: #b8b7b2; stroke: #52514e; stroke-width: 0.5; stroke-linejoin: miter"/>
   </g>
   <g id="patch_20">
    <path d="M 264.34021 363.32 
L 275.324763 363.32 
L 275.324763 362.202007 
L 264.34021 362.202007 
z
" clip-path="url(#pcf2b39dd7d)" style="fill: #b8b7b2; stroke: #52514e; stroke-width: 0.5; stroke-linejoin: miter"/>
   </g>
   <g id="patch_21">
    <path d="M 279.596533 363.32 
L 290.581085 363.32 
L 290.581085 362.920717 
L 279.596533 362.920717 
z
" clip-path="url(#pcf2b39dd7d)" style="fill: #b8b7b2; stroke: #52514e; stroke-width: 0.5; stroke-linejoin: miter"/>
   </g>
   <g id="patch_22">
    <path d="M 294.852856 363.32 
L 305.837408 363.32 
L 305.837408 363.186906 
L 294.852856 363.186906 
z
" clip-path="url(#pcf2b39dd7d)" style="fill: #b8b7b2; stroke: #52514e; stroke-width: 0.5; stroke-linejoin: miter"/>
   </g>
   <g id="matplotlib.axis_3">
    <g id="xtick_8">
     <g id="line2d_8">
      <g>
       <use xlink:href="#ma83ca8241d" x="71.500292" y="363.32" style="fill: #52514e; stroke: #52514e; stroke-width: 0.8"/>
      </g>
     </g>
     <g id="text_12">
      <!-- 0 -->
      <g style="fill: #52514e" transform="translate(68.000917 378.677422) scale(0.11 -0.11)">
       <use xlink:href="#DejaVuSans-13"/>
      </g>
     </g>
    </g>
    <g id="xtick_9">
     <g id="line2d_9">
      <g>
       <use xlink:href="#ma83ca8241d" x="102.012938" y="363.32" style="fill: #52514e; stroke: #52514e; stroke-width: 0.8"/>
      </g>
     </g>
     <g id="text_13">
      <!-- 2 -->
      <g style="fill: #52514e" transform="translate(98.513563 378.677422) scale(0.11 -0.11)">
       <use xlink:href="#DejaVuSans-15"/>
      </g>
     </g>
    </g>
    <g id="xtick_10">
     <g id="line2d_10">
      <g>
       <use xlink:href="#ma83ca8241d" x="132.525583" y="363.32" style="fill: #52514e; stroke: #52514e; stroke-width: 0.8"/>
      </g>
     </g>
     <g id="text_14">
      <!-- 4 -->
      <g style="fill: #52514e" transform="translate(129.026208 378.677422) scale(0.11 -0.11)">
       <use xlink:href="#DejaVuSans-17"/>
      </g>
     </g>
    </g>
    <g id="xtick_11">
     <g id="line2d_11">
      <g>
       <use xlink:href="#ma83ca8241d" x="163.038228" y="363.32" style="fill: #52514e; stroke: #52514e; stroke-width: 0.8"/>
      </g>
     </g>
     <g id="text_15">
      <!-- 6 -->
      <g style="fill: #52514e" transform="translate(159.538853 378.677422) scale(0.11 -0.11)">
       <use xlink:href="#DejaVuSans-19"/>
      </g>
     </g>
    </g>
    <g id="xtick_12">
     <g id="line2d_12">
      <g>
       <use xlink:href="#ma83ca8241d" x="193.550873" y="363.32" style="fill: #52514e; stroke: #52514e; stroke-width: 0.8"/>
      </g>
     </g>
     <g id="text_16">
      <!-- 8 -->
      <g style="fill: #52514e" transform="translate(190.051498 378.677422) scale(0.11 -0.11)">
       <defs>
        <path id="DejaVuSans-1b" d="M 2034 2216 
Q 1584 2216 1326 1975 
Q 1069 1734 1069 1313 
Q 1069 891 1326 650 
Q 1584 409 2034 409 
Q 2484 409 2743 651 
Q 3003 894 3003 1313 
Q 3003 1734 2745 1975 
Q 2488 2216 2034 2216 
z
M 1403 2484 
Q 997 2584 770 2862 
Q 544 3141 544 3541 
Q 544 4100 942 4425 
Q 1341 4750 2034 4750 
Q 2731 4750 3128 4425 
Q 3525 4100 3525 3541 
Q 3525 3141 3298 2862 
Q 3072 2584 2669 2484 
Q 3125 2378 3379 2068 
Q 3634 1759 3634 1313 
Q 3634 634 3220 271 
Q 2806 -91 2034 -91 
Q 1263 -91 848 271 
Q 434 634 434 1313 
Q 434 1759 690 2068 
Q 947 2378 1403 2484 
z
M 1172 3481 
Q 1172 3119 1398 2916 
Q 1625 2713 2034 2713 
Q 2441 2713 2670 2916 
Q 2900 3119 2900 3481 
Q 2900 3844 2670 4047 
Q 2441 4250 2034 4250 
Q 1625 4250 1398 4047 
Q 1172 3844 1172 3481 
z
" transform="scale(0.015625)"/>
       </defs>
       <use xlink:href="#DejaVuSans-1b"/>
      </g>
     </g>
    </g>
    <g id="xtick_13">
     <g id="line2d_13">
      <g>
       <use xlink:href="#ma83ca8241d" x="224.063519" y="363.32" style="fill: #52514e; stroke: #52514e; stroke-width: 0.8"/>
      </g>
     </g>
     <g id="text_17">
      <!-- 10 -->
      <g style="fill: #52514e" transform="translate(217.064769 378.677422) scale(0.11 -0.11)">
       <use xlink:href="#DejaVuSans-14"/>
       <use xlink:href="#DejaVuSans-13" transform="translate(63.625 0)"/>
      </g>
     </g>
    </g>
    <g id="xtick_14">
     <g id="line2d_14">
      <g>
       <use xlink:href="#ma83ca8241d" x="254.576164" y="363.32" style="fill: #52514e; stroke: #52514e; stroke-width: 0.8"/>
      </g>
     </g>
     <g id="text_18">
      <!-- 12 -->
      <g style="fill: #52514e" transform="translate(247.577414 378.677422) scale(0.11 -0.11)">
       <use xlink:href="#DejaVuSans-14"/>
       <use xlink:href="#DejaVuSans-15" transform="translate(63.625 0)"/>
      </g>
     </g>
    </g>
    <g id="xtick_15">
     <g id="line2d_15">
      <g>
       <use xlink:href="#ma83ca8241d" x="285.088809" y="363.32" style="fill: #52514e; stroke: #52514e; stroke-width: 0.8"/>
      </g>
     </g>
     <g id="text_19">
      <!-- 14 -->
      <g style="fill: #52514e" transform="translate(278.090059 378.677422) scale(0.11 -0.11)">
       <use xlink:href="#DejaVuSans-14"/>
       <use xlink:href="#DejaVuSans-17" transform="translate(63.625 0)"/>
      </g>
     </g>
    </g>
    <g id="text_20">
     <!-- Responses in 10 s ($k$) -->
     <g style="fill: #0b0b0b" transform="translate(99.028919 395.2) scale(0.13 -0.13)">
      <defs>
       <path id="DejaVuSans-Bold-35" d="M 2297 2597 
Q 2675 2597 2839 2737 
Q 3003 2878 3003 3200 
Q 3003 3519 2839 3656 
Q 2675 3794 2297 3794 
L 1791 3794 
L 1791 2597 
L 2297 2597 
z
M 1791 1766 
L 1791 0 
L 588 0 
L 588 4666 
L 2425 4666 
Q 3347 4666 3776 4356 
Q 4206 4047 4206 3378 
Q 4206 2916 3982 2619 
Q 3759 2322 3309 2181 
Q 3556 2125 3751 1926 
Q 3947 1728 4147 1325 
L 4800 0 
L 3519 0 
L 2950 1159 
Q 2778 1509 2601 1637 
Q 2425 1766 2131 1766 
L 1791 1766 
z
" transform="scale(0.015625)"/>
      </defs>
      <use xlink:href="#DejaVuSans-Bold-35" transform="translate(0 0.015625)"/>
      <use xlink:href="#DejaVuSans-Bold-48" transform="translate(77.001953 0.015625)"/>
      <use xlink:href="#DejaVuSans-Bold-56" transform="translate(144.824219 0.015625)"/>
      <use xlink:href="#DejaVuSans-Bold-53" transform="translate(204.345703 0.015625)"/>
      <use xlink:href="#DejaVuSans-Bold-52" transform="translate(275.927734 0.015625)"/>
      <use xlink:href="#DejaVuSans-Bold-51" transform="translate(344.628906 0.015625)"/>
      <use xlink:href="#DejaVuSans-Bold-56" transform="translate(415.820312 0.015625)"/>
      <use xlink:href="#DejaVuSans-Bold-48" transform="translate(475.341797 0.015625)"/>
      <use xlink:href="#DejaVuSans-Bold-56" transform="translate(543.164062 0.015625)"/>
      <use xlink:href="#DejaVuSans-Bold-3" transform="translate(602.685547 0.015625)"/>
      <use xlink:href="#DejaVuSans-Bold-4c" transform="translate(637.5 0.015625)"/>
      <use xlink:href="#DejaVuSans-Bold-51" transform="translate(671.777344 0.015625)"/>
      <use xlink:href="#DejaVuSans-Bold-3" transform="translate(742.96875 0.015625)"/>
      <use xlink:href="#DejaVuSans-Bold-14" transform="translate(777.783203 0.015625)"/>
      <use xlink:href="#DejaVuSans-Bold-13" transform="translate(847.363281 0.015625)"/>
      <use xlink:href="#DejaVuSans-Bold-3" transform="translate(916.943359 0.015625)"/>
      <use xlink:href="#DejaVuSans-Bold-56" transform="translate(951.757812 0.015625)"/>
      <use xlink:href="#DejaVuSans-Bold-3" transform="translate(1011.279297 0.015625)"/>
      <use xlink:href="#DejaVuSans-Bold-b" transform="translate(1046.09375 0.015625)"/>
      <use xlink:href="#DejaVuSans-Oblique-4e" transform="translate(1091.796875 0.015625)"/>
      <use xlink:href="#DejaVuSans-Bold-c" transform="translate(1149.707031 0.015625)"/>
     </g>
    </g>
   </g>
   <g id="matplotlib.axis_4">
    <g id="ytick_1">
     <g id="line2d_16">
      <defs>
       <path id="ma42c85832e" d="M 0 0 
L -3.5 0 
" style="stroke: #52514e; stroke-width: 0.8"/>
      </defs>
      <g>
       <use xlink:href="#ma42c85832e" x="59.295234" y="363.32" style="fill: #52514e; stroke: #52514e; stroke-width: 0.8"/>
      </g>
     </g>
     <g id="text_21">
      <!-- 0.00 -->
      <g style="fill: #52514e" transform="translate(27.803047 367.498711) scale(0.11 -0.11)">
       <use xlink:href="#DejaVuSans-13"/>
       <use xlink:href="#DejaVuSans-11" transform="translate(63.625 0)"/>
       <use xlink:href="#DejaVuSans-13" transform="translate(95.40625 0)"/>
       <use xlink:href="#DejaVuSans-13" transform="translate(159.03125 0)"/>
      </g>
     </g>
    </g>
    <g id="ytick_2">
     <g id="line2d_17">
      <g>
       <use xlink:href="#ma42c85832e" x="59.295234" y="320.999389" style="fill: #52514e; stroke: #52514e; stroke-width: 0.8"/>
      </g>
     </g>
     <g id="text_22">
      <!-- 0.05 -->
      <g style="fill: #52514e" transform="translate(27.803047 325.1781) scale(0.11 -0.11)">
       <use xlink:href="#DejaVuSans-13"/>
       <use xlink:href="#DejaVuSans-11" transform="translate(63.625 0)"/>
       <use xlink:href="#DejaVuSans-13" transform="translate(95.40625 0)"/>
       <use xlink:href="#DejaVuSans-18" transform="translate(159.03125 0)"/>
      </g>
     </g>
    </g>
    <g id="ytick_3">
     <g id="line2d_18">
      <g>
       <use xlink:href="#ma42c85832e" x="59.295234" y="278.678779" style="fill: #52514e; stroke: #52514e; stroke-width: 0.8"/>
      </g>
     </g>
     <g id="text_23">
      <!-- 0.10 -->
      <g style="fill: #52514e" transform="translate(27.803047 282.85749) scale(0.11 -0.11)">
       <use xlink:href="#DejaVuSans-13"/>
       <use xlink:href="#DejaVuSans-11" transform="translate(63.625 0)"/>
       <use xlink:href="#DejaVuSans-14" transform="translate(95.40625 0)"/>
       <use xlink:href="#DejaVuSans-13" transform="translate(159.03125 0)"/>
      </g>
     </g>
    </g>
    <g id="ytick_4">
     <g id="line2d_19">
      <g>
       <use xlink:href="#ma42c85832e" x="59.295234" y="236.358168" style="fill: #52514e; stroke: #52514e; stroke-width: 0.8"/>
      </g>
     </g>
     <g id="text_24">
      <!-- 0.15 -->
      <g style="fill: #52514e" transform="translate(27.803047 240.536879) scale(0.11 -0.11)">
       <use xlink:href="#DejaVuSans-13"/>
       <use xlink:href="#DejaVuSans-11" transform="translate(63.625 0)"/>
       <use xlink:href="#DejaVuSans-14" transform="translate(95.40625 0)"/>
       <use xlink:href="#DejaVuSans-18" transform="translate(159.03125 0)"/>
      </g>
     </g>
    </g>
    <g id="ytick_5">
     <g id="line2d_20">
      <g>
       <use xlink:href="#ma42c85832e" x="59.295234" y="194.037557" style="fill: #52514e; stroke: #52514e; stroke-width: 0.8"/>
      </g>
     </g>
     <g id="text_25">
      <!-- 0.20 -->
      <g style="fill: #52514e" transform="translate(27.803047 198.216268) scale(0.11 -0.11)">
       <use xlink:href="#DejaVuSans-13"/>
       <use xlink:href="#DejaVuSans-11" transform="translate(63.625 0)"/>
       <use xlink:href="#DejaVuSans-15" transform="translate(95.40625 0)"/>
       <use xlink:href="#DejaVuSans-13" transform="translate(159.03125 0)"/>
      </g>
     </g>
    </g>
    <g id="text_26">
     <!-- $P(k)$ -->
     <g style="fill: #0b0b0b" transform="translate(20.68 291.483779) rotate(-90) scale(0.13 -0.13)">
      <defs>
       <path id="DejaVuSans-Oblique-33" d="M 1081 4666 
L 2541 4666 
Q 3178 4666 3512 4369 
Q 3847 4072 3847 3500 
Q 3847 2731 3353 2303 
Q 2859 1875 1966 1875 
L 1172 1875 
L 806 0 
L 172 0 
L 1081 4666 
z
M 1613 4147 
L 1275 2394 
L 2069 2394 
Q 2606 2394 2893 2669 
Q 3181 2944 3181 3456 
Q 3181 3784 2986 3965 
Q 2791 4147 2438 4147 
L 1613 4147 
z
" transform="scale(0.015625)"/>
       <path id="DejaVuSans-b" d="M 1984 4856 
Q 1566 4138 1362 3434 
Q 1159 2731 1159 2009 
Q 1159 1288 1364 580 
Q 1569 -128 1984 -844 
L 1484 -844 
Q 1016 -109 783 600 
Q 550 1309 550 2009 
Q 550 2706 781 3412 
Q 1013 4119 1484 4856 
L 1984 4856 
z
" transform="scale(0.015625)"/>
       <path id="DejaVuSans-c" d="M 513 4856 
L 1013 4856 
Q 1481 4119 1714 3412 
Q 1947 2706 1947 2009 
Q 1947 1309 1714 600 
Q 1481 -109 1013 -844 
L 513 -844 
Q 928 -128 1133 580 
Q 1338 1288 1338 2009 
Q 1338 2731 1133 3434 
Q 928 4138 513 4856 
z
" transform="scale(0.015625)"/>
      </defs>
      <use xlink:href="#DejaVuSans-Oblique-33" transform="translate(0 0.015625)"/>
      <use xlink:href="#DejaVuSans-b" transform="translate(60.302734 0.015625)"/>
      <use xlink:href="#DejaVuSans-Oblique-4e" transform="translate(99.316406 0.015625)"/>
      <use xlink:href="#DejaVuSans-c" transform="translate(157.226562 0.015625)"/>
     </g>
    </g>
   </g>
   <g id="patch_23">
    <path d="M 59.295234 363.32 
L 59.295234 194.037557 
" style="fill: none; stroke: #52514e; stroke-width: 1.1; stroke-linejoin: miter; stroke-linecap: square"/>
   </g>
   <g id="patch_24">
    <path d="M 59.295234 363.32 
L 294.242603 363.32 
" style="fill: none; stroke: #52514e; stroke-width: 1.1; stroke-linejoin: miter; stroke-linecap: square"/>
   </g>
   <g id="text_27">
    <!-- $\mathrm{mean} = \mathrm{variance} = \lambda t$ -->
    <g style="fill: #52514e" transform="translate(176.945074 220.638626) scale(0.105 -0.105)">
     <defs>
      <path id="DejaVuSans-50" d="M 3328 2828 
Q 3544 3216 3844 3400 
Q 4144 3584 4550 3584 
Q 5097 3584 5394 3201 
Q 5691 2819 5691 2113 
L 5691 0 
L 5113 0 
L 5113 2094 
Q 5113 2597 4934 2840 
Q 4756 3084 4391 3084 
Q 3944 3084 3684 2787 
Q 3425 2491 3425 1978 
L 3425 0 
L 2847 0 
L 2847 2094 
Q 2847 2600 2669 2842 
Q 2491 3084 2119 3084 
Q 1678 3084 1418 2786 
Q 1159 2488 1159 1978 
L 1159 0 
L 581 0 
L 581 3500 
L 1159 3500 
L 1159 2956 
Q 1356 3278 1631 3431 
Q 1906 3584 2284 3584 
Q 2666 3584 2933 3390 
Q 3200 3197 3328 2828 
z
" transform="scale(0.015625)"/>
      <path id="DejaVuSans-48" d="M 3597 1894 
L 3597 1613 
L 953 1613 
Q 991 1019 1311 708 
Q 1631 397 2203 397 
Q 2534 397 2845 478 
Q 3156 559 3463 722 
L 3463 178 
Q 3153 47 2828 -22 
Q 2503 -91 2169 -91 
Q 1331 -91 842 396 
Q 353 884 353 1716 
Q 353 2575 817 3079 
Q 1281 3584 2069 3584 
Q 2775 3584 3186 3129 
Q 3597 2675 3597 1894 
z
M 3022 2063 
Q 3016 2534 2758 2815 
Q 2500 3097 2075 3097 
Q 1594 3097 1305 2825 
Q 1016 2553 972 2059 
L 3022 2063 
z
" transform="scale(0.015625)"/>
      <path id="DejaVuSans-44" d="M 2194 1759 
Q 1497 1759 1228 1600 
Q 959 1441 959 1056 
Q 959 750 1161 570 
Q 1363 391 1709 391 
Q 2188 391 2477 730 
Q 2766 1069 2766 1631 
L 2766 1759 
L 2194 1759 
z
M 3341 1997 
L 3341 0 
L 2766 0 
L 2766 531 
Q 2569 213 2275 61 
Q 1981 -91 1556 -91 
Q 1019 -91 701 211 
Q 384 513 384 1019 
Q 384 1609 779 1909 
Q 1175 2209 1959 2209 
L 2766 2209 
L 2766 2266 
Q 2766 2663 2505 2880 
Q 2244 3097 1772 3097 
Q 1472 3097 1187 3025 
Q 903 2953 641 2809 
L 641 3341 
Q 956 3463 1253 3523 
Q 1550 3584 1831 3584 
Q 2591 3584 2966 3190 
Q 3341 2797 3341 1997 
z
" transform="scale(0.015625)"/>
      <path id="DejaVuSans-51" d="M 3513 2113 
L 3513 0 
L 2938 0 
L 2938 2094 
Q 2938 2591 2744 2837 
Q 2550 3084 2163 3084 
Q 1697 3084 1428 2787 
Q 1159 2491 1159 1978 
L 1159 0 
L 581 0 
L 581 3500 
L 1159 3500 
L 1159 2956 
Q 1366 3272 1645 3428 
Q 1925 3584 2291 3584 
Q 2894 3584 3203 3211 
Q 3513 2838 3513 2113 
z
" transform="scale(0.015625)"/>
      <path id="DejaVuSans-59" d="M 191 3500 
L 800 3500 
L 1894 563 
L 2988 3500 
L 3597 3500 
L 2284 0 
L 1503 0 
L 191 3500 
z
" transform="scale(0.015625)"/>
      <path id="DejaVuSans-55" d="M 2631 2963 
Q 2534 3019 2420 3045 
Q 2306 3072 2169 3072 
Q 1681 3072 1420 2755 
Q 1159 2438 1159 1844 
L 1159 0 
L 581 0 
L 581 3500 
L 1159 3500 
L 1159 2956 
Q 1341 3275 1631 3429 
Q 1922 3584 2338 3584 
Q 2397 3584 2469 3576 
Q 2541 3569 2628 3553 
L 2631 2963 
z
" transform="scale(0.015625)"/>
      <path id="DejaVuSans-4c" d="M 603 3500 
L 1178 3500 
L 1178 0 
L 603 0 
L 603 3500 
z
M 603 4863 
L 1178 4863 
L 1178 4134 
L 603 4134 
L 603 4863 
z
" transform="scale(0.015625)"/>
      <path id="DejaVuSans-46" d="M 3122 3366 
L 3122 2828 
Q 2878 2963 2633 3030 
Q 2388 3097 2138 3097 
Q 1578 3097 1268 2742 
Q 959 2388 959 1747 
Q 959 1106 1268 751 
Q 1578 397 2138 397 
Q 2388 397 2633 464 
Q 2878 531 3122 666 
L 3122 134 
Q 2881 22 2623 -34 
Q 2366 -91 2075 -91 
Q 1284 -91 818 406 
Q 353 903 353 1747 
Q 353 2603 823 3093 
Q 1294 3584 2113 3584 
Q 2378 3584 2631 3529 
Q 2884 3475 3122 3366 
z
" transform="scale(0.015625)"/>
      <path id="DejaVuSans-Oblique-57" d="M 2706 3500 
L 2619 3053 
L 1472 3053 
L 1100 1153 
Q 1081 1047 1072 975 
Q 1063 903 1063 863 
Q 1063 663 1183 572 
Q 1303 481 1569 481 
L 2150 481 
L 2053 0 
L 1503 0 
Q 991 0 739 200 
Q 488 400 488 806 
Q 488 878 497 964 
Q 506 1050 525 1153 
L 897 3053 
L 409 3053 
L 500 3500 
L 978 3500 
L 1172 4494 
L 1747 4494 
L 1556 3500 
L 2706 3500 
z
" transform="scale(0.015625)"/>
     </defs>
     <use xlink:href="#DejaVuSans-50" transform="translate(0 0.015625)"/>
     <use xlink:href="#DejaVuSans-48" transform="translate(97.412109 0.015625)"/>
     <use xlink:href="#DejaVuSans-44" transform="translate(158.935547 0.015625)"/>
     <use xlink:href="#DejaVuSans-51" transform="translate(220.214844 0.015625)"/>
     <use xlink:href="#DejaVuSans-20" transform="translate(303.076172 0.015625)"/>
     <use xlink:href="#DejaVuSans-59" transform="translate(406.347656 0.015625)"/>
     <use xlink:href="#DejaVuSans-44" transform="translate(465.527344 0.015625)"/>
     <use xlink:href="#DejaVuSans-55" transform="translate(526.806641 0.015625)"/>
     <use xlink:href="#DejaVuSans-4c" transform="translate(567.919922 0.015625)"/>
     <use xlink:href="#DejaVuSans-44" transform="translate(595.703125 0.015625)"/>
     <use xlink:href="#DejaVuSans-51" transform="translate(656.982422 0.015625)"/>
     <use xlink:href="#DejaVuSans-46" transform="translate(720.361328 0.015625)"/>
     <use xlink:href="#DejaVuSans-48" transform="translate(775.341797 0.015625)"/>
     <use xlink:href="#DejaVuSans-20" transform="translate(856.347656 0.015625)"/>
     <use xlink:href="#DejaVuSans-Oblique-34f" transform="translate(959.619141 0.015625)"/>
     <use xlink:href="#DejaVuSans-Oblique-57" transform="translate(1018.798828 0.015625)"/>
    </g>
   </g>
   <g id="text_28">
    <!-- B.  Counts: Poisson($\lambda t = 5$) -->
    <g style="fill: #0b0b0b" transform="translate(59.295234 184.037557) scale(0.13 -0.13)">
     <defs>
      <path id="DejaVuSans-Bold-25" d="M 2456 2859 
Q 2741 2859 2887 2984 
Q 3034 3109 3034 3353 
Q 3034 3594 2887 3720 
Q 2741 3847 2456 3847 
L 1791 3847 
L 1791 2859 
L 2456 2859 
z
M 2497 819 
Q 2859 819 3042 972 
Q 3225 1125 3225 1434 
Q 3225 1738 3044 1889 
Q 2863 2041 2497 2041 
L 1791 2041 
L 1791 819 
L 2497 819 
z
M 3616 2497 
Q 4003 2384 4215 2081 
Q 4428 1778 4428 1338 
Q 4428 663 3972 331 
Q 3516 0 2584 0 
L 588 0 
L 588 4666 
L 2394 4666 
Q 3366 4666 3802 4372 
Q 4238 4078 4238 3431 
Q 4238 3091 4078 2852 
Q 3919 2613 3616 2497 
z
" transform="scale(0.015625)"/>
      <path id="DejaVuSans-Bold-26" d="M 4288 256 
Q 3956 84 3597 -3 
Q 3238 -91 2847 -91 
Q 1681 -91 1000 561 
Q 319 1213 319 2328 
Q 319 3447 1000 4098 
Q 1681 4750 2847 4750 
Q 3238 4750 3597 4662 
Q 3956 4575 4288 4403 
L 4288 3438 
Q 3953 3666 3628 3772 
Q 3303 3878 2944 3878 
Q 2300 3878 1931 3465 
Q 1563 3053 1563 2328 
Q 1563 1606 1931 1193 
Q 2300 781 2944 781 
Q 3303 781 3628 887 
Q 3953 994 4288 1222 
L 4288 256 
z
" transform="scale(0.015625)"/>
      <path id="DejaVuSans-Bold-58" d="M 500 1363 
L 500 3500 
L 1625 3500 
L 1625 3150 
Q 1625 2866 1622 2436 
Q 1619 2006 1619 1863 
Q 1619 1441 1641 1255 
Q 1663 1069 1716 984 
Q 1784 875 1895 815 
Q 2006 756 2150 756 
Q 2500 756 2700 1025 
Q 2900 1294 2900 1772 
L 2900 3500 
L 4019 3500 
L 4019 0 
L 2900 0 
L 2900 506 
Q 2647 200 2364 54 
Q 2081 -91 1741 -91 
Q 1134 -91 817 281 
Q 500 653 500 1363 
z
" transform="scale(0.015625)"/>
      <path id="DejaVuSans-Bold-1d" d="M 716 3500 
L 1844 3500 
L 1844 2291 
L 716 2291 
L 716 3500 
z
M 716 1209 
L 1844 1209 
L 1844 0 
L 716 0 
L 716 1209 
z
" transform="scale(0.015625)"/>
      <path id="DejaVuSans-Bold-33" d="M 588 4666 
L 2584 4666 
Q 3475 4666 3951 4270 
Q 4428 3875 4428 3144 
Q 4428 2409 3951 2014 
Q 3475 1619 2584 1619 
L 1791 1619 
L 1791 0 
L 588 0 
L 588 4666 
z
M 1791 3794 
L 1791 2491 
L 2456 2491 
Q 2806 2491 2997 2661 
Q 3188 2831 3188 3144 
Q 3188 3456 2997 3625 
Q 2806 3794 2456 3794 
L 1791 3794 
z
" transform="scale(0.015625)"/>
     </defs>
     <use xlink:href="#DejaVuSans-Bold-25" transform="translate(0 0.015625)"/>
     <use xlink:href="#DejaVuSans-Bold-11" transform="translate(76.220703 0.015625)"/>
     <use xlink:href="#DejaVuSans-Bold-3" transform="translate(114.208984 0.015625)"/>
     <use xlink:href="#DejaVuSans-Bold-3" transform="translate(149.023438 0.015625)"/>
     <use xlink:href="#DejaVuSans-Bold-26" transform="translate(183.837891 0.015625)"/>
     <use xlink:href="#DejaVuSans-Bold-52" transform="translate(257.226562 0.015625)"/>
     <use xlink:href="#DejaVuSans-Bold-58" transform="translate(325.927734 0.015625)"/>
     <use xlink:href="#DejaVuSans-Bold-51" transform="translate(397.119141 0.015625)"/>
     <use xlink:href="#DejaVuSans-Bold-57" transform="translate(468.310547 0.015625)"/>
     <use xlink:href="#DejaVuSans-Bold-56" transform="translate(516.113281 0.015625)"/>
     <use xlink:href="#DejaVuSans-Bold-1d" transform="translate(575.634766 0.015625)"/>
     <use xlink:href="#DejaVuSans-Bold-3" transform="translate(615.625 0.015625)"/>
     <use xlink:href="#DejaVuSans-Bold-33" transform="translate(650.439453 0.015625)"/>
     <use xlink:href="#DejaVuSans-Bold-52" transform="translate(723.730469 0.015625)"/>
     <use xlink:href="#DejaVuSans-Bold-4c" transform="translate(792.431641 0.015625)"/>
     <use xlink:href="#DejaVuSans-Bold-56" transform="translate(826.708984 0.015625)"/>
     <use xlink:href="#DejaVuSans-Bold-56" transform="translate(886.230469 0.015625)"/>
     <use xlink:href="#DejaVuSans-Bold-52" transform="translate(945.751953 0.015625)"/>
     <use xlink:href="#DejaVuSans-Bold-51" transform="translate(1014.453125 0.015625)"/>
     <use xlink:href="#DejaVuSans-Bold-b" transform="translate(1085.644531 0.015625)"/>
     <use xlink:href="#DejaVuSans-Oblique-34f" transform="translate(1131.347656 0.015625)"/>
     <use xlink:href="#DejaVuSans-Oblique-57" transform="translate(1190.527344 0.015625)"/>
     <use xlink:href="#DejaVuSans-20" transform="translate(1249.21875 0.015625)"/>
     <use xlink:href="#DejaVuSans-18" transform="translate(1352.490234 0.015625)"/>
     <use xlink:href="#DejaVuSans-Bold-c" transform="translate(1416.113281 0.015625)"/>
    </g>
   </g>
  </g>
  <g id="axes_3">
   <g id="patch_25">
    <path d="M 360.027866 363.32 
L 594.975234 363.32 
L 594.975234 194.037557 
L 360.027866 194.037557 
z
" style="fill: #ffffff"/>
   </g>
   <g id="FillBetweenPolyCollection_1">
    <defs>
     <path id="m6f4ef8f97a" d="M 458.364233 -45.803047 
L 458.364233 -58.76504 
L 458.953074 -58.571581 
L 459.541914 -58.38101 
L 460.130755 -58.193282 
L 460.719595 -58.008357 
L 461.308436 -57.826191 
L 461.897276 -57.646745 
L 462.486117 -57.469977 
L 463.074957 -57.295847 
L 463.663798 -57.124315 
L 464.252638 -56.955344 
L 464.841479 -56.788895 
L 465.430319 -56.624931 
L 466.01916 -56.463413 
L 466.608001 -56.304306 
L 467.196841 -56.147574 
L 467.785682 -55.993181 
L 468.374522 -55.841092 
L 468.963363 -55.691273 
L 469.552203 -55.54369 
L 470.141044 -55.39831 
L 470.729884 -55.2551 
L 471.318725 -55.114027 
L 471.907565 -54.97506 
L 472.496406 -54.838167 
L 473.085246 -54.703317 
L 473.674087 -54.57048 
L 474.262927 -54.439625 
L 474.851768 -54.310723 
L 475.440608 -54.183745 
L 476.029449 -54.058663 
L 476.618289 -53.935447 
L 477.20713 -53.81407 
L 477.79597 -53.694505 
L 478.384811 -53.576724 
L 478.973651 -53.460701 
L 479.562492 -53.34641 
L 480.151333 -53.233824 
L 480.740173 -53.122919 
L 481.329014 -53.01367 
L 481.917854 -52.90605 
L 482.506695 -52.800037 
L 483.095535 -52.695607 
L 483.684376 -52.592734 
L 484.273216 -52.491398 
L 484.862057 -52.391573 
L 485.450897 -52.293239 
L 486.039738 -52.196372 
L 486.628578 -52.100951 
L 487.217419 -52.006955 
L 487.806259 -51.914361 
L 488.3951 -51.823149 
L 488.98394 -51.733298 
L 489.572781 -51.644789 
L 490.161621 -51.5576 
L 490.750462 -51.471713 
L 491.339302 -51.387107 
L 491.928143 -51.303765 
L 492.516983 -51.221666 
L 493.105824 -51.140793 
L 493.694665 -51.061126 
L 494.283505 -50.982649 
L 494.872346 -50.905343 
L 495.461186 -50.829191 
L 496.050027 -50.754175 
L 496.638867 -50.680279 
L 497.227708 -50.607486 
L 497.816548 -50.535779 
L 498.405389 -50.465143 
L 498.994229 -50.39556 
L 499.58307 -50.327017 
L 500.17191 -50.259496 
L 500.760751 -50.192983 
L 501.349591 -50.127463 
L 501.938432 -50.062921 
L 502.527272 -49.999342 
L 503.116113 -49.936712 
L 503.704953 -49.875016 
L 504.293794 -49.814242 
L 504.882634 -49.754374 
L 505.471475 -49.6954 
L 506.060315 -49.637307 
L 506.649156 -49.58008 
L 507.237997 -49.523707 
L 507.826837 -49.468176 
L 508.415678 -49.413474 
L 509.004518 -49.359588 
L 509.593359 -49.306506 
L 510.182199 -49.254217 
L 510.77104 -49.202708 
L 511.35988 -49.151967 
L 511.948721 -49.101984 
L 512.537561 -49.052747 
L 513.126402 -49.004245 
L 513.715242 -48.956467 
L 514.304083 -48.909402 
L 514.892923 -48.863039 
L 515.481764 -48.817369 
L 516.070604 -48.77238 
L 516.659445 -48.728062 
L 517.248285 -48.684406 
L 517.837126 -48.641401 
L 518.425966 -48.599039 
L 519.014807 -48.557308 
L 519.603648 -48.516201 
L 520.192488 -48.475707 
L 520.781329 -48.435817 
L 521.370169 -48.396523 
L 521.95901 -48.357815 
L 522.54785 -48.319684 
L 523.136691 -48.282123 
L 523.725531 -48.245123 
L 524.314372 -48.208675 
L 524.903212 -48.172771 
L 525.492053 -48.137402 
L 526.080893 -48.102562 
L 526.669734 -48.068241 
L 527.258574 -48.034433 
L 527.847415 -48.001129 
L 528.436255 -47.968323 
L 529.025096 -47.936006 
L 529.613936 -47.904171 
L 530.202777 -47.872812 
L 530.791617 -47.84192 
L 531.380458 -47.81149 
L 531.969298 -47.781514 
L 532.558139 -47.751985 
L 533.14698 -47.722897 
L 533.73582 -47.694243 
L 534.324661 -47.666017 
L 534.913501 -47.638212 
L 535.502342 -47.610822 
L 536.091182 -47.58384 
L 536.680023 -47.557262 
L 537.268863 -47.53108 
L 537.857704 -47.505289 
L 538.446544 -47.479883 
L 539.035385 -47.454856 
L 539.624225 -47.430203 
L 540.213066 -47.405917 
L 540.801906 -47.381994 
L 541.390747 -47.358428 
L 541.979587 -47.335214 
L 542.568428 -47.312346 
L 543.157268 -47.28982 
L 543.746109 -47.26763 
L 544.334949 -47.245771 
L 544.92379 -47.224238 
L 545.51263 -47.203026 
L 546.101471 -47.182132 
L 546.690312 -47.161549 
L 547.279152 -47.141273 
L 547.867993 -47.1213 
L 548.456833 -47.101625 
L 549.045674 -47.082243 
L 549.634514 -47.063151 
L 550.223355 -47.044344 
L 550.812195 -47.025817 
L 551.401036 -47.007567 
L 551.989876 -46.98959 
L 552.578717 -46.971881 
L 553.167557 -46.954436 
L 553.756398 -46.937251 
L 554.345238 -46.920323 
L 554.934079 -46.903648 
L 555.522919 -46.887221 
L 556.11176 -46.87104 
L 556.7006 -46.8551 
L 557.289441 -46.839398 
L 557.878281 -46.82393 
L 558.467122 -46.808693 
L 559.055963 -46.793684 
L 559.644803 -46.778899 
L 560.233644 -46.764334 
L 560.822484 -46.749987 
L 561.411325 -46.735853 
L 562.000165 -46.721931 
L 562.589006 -46.708217 
L 563.177846 -46.694707 
L 563.766687 -46.681399 
L 564.355527 -46.668289 
L 564.944368 -46.655376 
L 565.533208 -46.642654 
L 566.122049 -46.630123 
L 566.710889 -46.617779 
L 567.29973 -46.605619 
L 567.88857 -46.593641 
L 568.477411 -46.581841 
L 569.066251 -46.570217 
L 569.655092 -46.558767 
L 570.243932 -46.547488 
L 570.832773 -46.536377 
L 571.421613 -46.525432 
L 572.010454 -46.514651 
L 572.599295 -46.50403 
L 573.188135 -46.493568 
L 573.776976 -46.483261 
L 574.365816 -46.473109 
L 574.954657 -46.463108 
L 575.543497 -46.453257 
L 576.132338 -46.443553 
L 576.721178 -46.433993 
L 577.310019 -46.424576 
L 577.898859 -46.4153 
L 578.4877 -46.406162 
L 579.07654 -46.39716 
L 579.665381 -46.388293 
L 580.254221 -46.379558 
L 580.843062 -46.370954 
L 581.431902 -46.362478 
L 582.020743 -46.354128 
L 582.609583 -46.345903 
L 583.198424 -46.337801 
L 583.787264 -46.32982 
L 584.376105 -46.321957 
L 584.964945 -46.314213 
L 585.553786 -46.306584 
L 586.142627 -46.299068 
L 586.731467 -46.291665 
L 587.320308 -46.284372 
L 587.909148 -46.277189 
L 588.497989 -46.270112 
L 589.086829 -46.263141 
L 589.67567 -46.256274 
L 590.26451 -46.24951 
L 590.853351 -46.242846 
L 591.442191 -46.236282 
L 592.031032 -46.229816 
L 592.619872 -46.223446 
L 593.208713 -46.217172 
L 593.797553 -46.210991 
L 594.386394 -46.204902 
L 594.975234 -46.198905 
L 594.975234 -45.803047 
L 594.975234 -45.803047 
L 594.386394 -45.803047 
L 593.797553 -45.803047 
L 593.208713 -45.803047 
L 592.619872 -45.803047 
L 592.031032 -45.803047 
L 591.442191 -45.803047 
L 590.853351 -45.803047 
L 590.26451 -45.803047 
L 589.67567 -45.803047 
L 589.086829 -45.803047 
L 588.497989 -45.803047 
L 587.909148 -45.803047 
L 587.320308 -45.803047 
L 586.731467 -45.803047 
L 586.142627 -45.803047 
L 585.553786 -45.803047 
L 584.964945 -45.803047 
L 584.376105 -45.803047 
L 583.787264 -45.803047 
L 583.198424 -45.803047 
L 582.609583 -45.803047 
L 582.020743 -45.803047 
L 581.431902 -45.803047 
L 580.843062 -45.803047 
L 580.254221 -45.803047 
L 579.665381 -45.803047 
L 579.07654 -45.803047 
L 578.4877 -45.803047 
L 577.898859 -45.803047 
L 577.310019 -45.803047 
L 576.721178 -45.803047 
L 576.132338 -45.803047 
L 575.543497 -45.803047 
L 574.954657 -45.803047 
L 574.365816 -45.803047 
L 573.776976 -45.803047 
L 573.188135 -45.803047 
L 572.599295 -45.803047 
L 572.010454 -45.803047 
L 571.421613 -45.803047 
L 570.832773 -45.803047 
L 570.243932 -45.803047 
L 569.655092 -45.803047 
L 569.066251 -45.803047 
L 568.477411 -45.803047 
L 567.88857 -45.803047 
L 567.29973 -45.803047 
L 566.710889 -45.803047 
L 566.122049 -45.803047 
L 565.533208 -45.803047 
L 564.944368 -45.803047 
L 564.355527 -45.803047 
L 563.766687 -45.803047 
L 563.177846 -45.803047 
L 562.589006 -45.803047 
L 562.000165 -45.803047 
L 561.411325 -45.803047 
L 560.822484 -45.803047 
L 560.233644 -45.803047 
L 559.644803 -45.803047 
L 559.055963 -45.803047 
L 558.467122 -45.803047 
L 557.878281 -45.803047 
L 557.289441 -45.803047 
L 556.7006 -45.803047 
L 556.11176 -45.803047 
L 555.522919 -45.803047 
L 554.934079 -45.803047 
L 554.345238 -45.803047 
L 553.756398 -45.803047 
L 553.167557 -45.803047 
L 552.578717 -45.803047 
L 551.989876 -45.803047 
L 551.401036 -45.803047 
L 550.812195 -45.803047 
L 550.223355 -45.803047 
L 549.634514 -45.803047 
L 549.045674 -45.803047 
L 548.456833 -45.803047 
L 547.867993 -45.803047 
L 547.279152 -45.803047 
L 546.690312 -45.803047 
L 546.101471 -45.803047 
L 545.51263 -45.803047 
L 544.92379 -45.803047 
L 544.334949 -45.803047 
L 543.746109 -45.803047 
L 543.157268 -45.803047 
L 542.568428 -45.803047 
L 541.979587 -45.803047 
L 541.390747 -45.803047 
L 540.801906 -45.803047 
L 540.213066 -45.803047 
L 539.624225 -45.803047 
L 539.035385 -45.803047 
L 538.446544 -45.803047 
L 537.857704 -45.803047 
L 537.268863 -45.803047 
L 536.680023 -45.803047 
L 536.091182 -45.803047 
L 535.502342 -45.803047 
L 534.913501 -45.803047 
L 534.324661 -45.803047 
L 533.73582 -45.803047 
L 533.14698 -45.803047 
L 532.558139 -45.803047 
L 531.969298 -45.803047 
L 531.380458 -45.803047 
L 530.791617 -45.803047 
L 530.202777 -45.803047 
L 529.613936 -45.803047 
L 529.025096 -45.803047 
L 528.436255 -45.803047 
L 527.847415 -45.803047 
L 527.258574 -45.803047 
L 526.669734 -45.803047 
L 526.080893 -45.803047 
L 525.492053 -45.803047 
L 524.903212 -45.803047 
L 524.314372 -45.803047 
L 523.725531 -45.803047 
L 523.136691 -45.803047 
L 522.54785 -45.803047 
L 521.95901 -45.803047 
L 521.370169 -45.803047 
L 520.781329 -45.803047 
L 520.192488 -45.803047 
L 519.603648 -45.803047 
L 519.014807 -45.803047 
L 518.425966 -45.803047 
L 517.837126 -45.803047 
L 517.248285 -45.803047 
L 516.659445 -45.803047 
L 516.070604 -45.803047 
L 515.481764 -45.803047 
L 514.892923 -45.803047 
L 514.304083 -45.803047 
L 513.715242 -45.803047 
L 513.126402 -45.803047 
L 512.537561 -45.803047 
L 511.948721 -45.803047 
L 511.35988 -45.803047 
L 510.77104 -45.803047 
L 510.182199 -45.803047 
L 509.593359 -45.803047 
L 509.004518 -45.803047 
L 508.415678 -45.803047 
L 507.826837 -45.803047 
L 507.237997 -45.803047 
L 506.649156 -45.803047 
L 506.060315 -45.803047 
L 505.471475 -45.803047 
L 504.882634 -45.803047 
L 504.293794 -45.803047 
L 503.704953 -45.803047 
L 503.116113 -45.803047 
L 502.527272 -45.803047 
L 501.938432 -45.803047 
L 501.349591 -45.803047 
L 500.760751 -45.803047 
L 500.17191 -45.803047 
L 499.58307 -45.803047 
L 498.994229 -45.803047 
L 498.405389 -45.803047 
L 497.816548 -45.803047 
L 497.227708 -45.803047 
L 496.638867 -45.803047 
L 496.050027 -45.803047 
L 495.461186 -45.803047 
L 494.872346 -45.803047 
L 494.283505 -45.803047 
L 493.694665 -45.803047 
L 493.105824 -45.803047 
L 492.516983 -45.803047 
L 491.928143 -45.803047 
L 491.339302 -45.803047 
L 490.750462 -45.803047 
L 490.161621 -45.803047 
L 489.572781 -45.803047 
L 488.98394 -45.803047 
L 488.3951 -45.803047 
L 487.806259 -45.803047 
L 487.217419 -45.803047 
L 486.628578 -45.803047 
L 486.039738 -45.803047 
L 485.450897 -45.803047 
L 484.862057 -45.803047 
L 484.273216 -45.803047 
L 483.684376 -45.803047 
L 483.095535 -45.803047 
L 482.506695 -45.803047 
L 481.917854 -45.803047 
L 481.329014 -45.803047 
L 480.740173 -45.803047 
L 480.151333 -45.803047 
L 479.562492 -45.803047 
L 478.973651 -45.803047 
L 478.384811 -45.803047 
L 477.79597 -45.803047 
L 477.20713 -45.803047 
L 476.618289 -45.803047 
L 476.029449 -45.803047 
L 475.440608 -45.803047 
L 474.851768 -45.803047 
L 474.262927 -45.803047 
L 473.674087 -45.803047 
L 473.085246 -45.803047 
L 472.496406 -45.803047 
L 471.907565 -45.803047 
L 471.318725 -45.803047 
L 470.729884 -45.803047 
L 470.141044 -45.803047 
L 469.552203 -45.803047 
L 468.963363 -45.803047 
L 468.374522 -45.803047 
L 467.785682 -45.803047 
L 467.196841 -45.803047 
L 466.608001 -45.803047 
L 466.01916 -45.803047 
L 465.430319 -45.803047 
L 464.841479 -45.803047 
L 464.252638 -45.803047 
L 463.663798 -45.803047 
L 463.074957 -45.803047 
L 462.486117 -45.803047 
L 461.897276 -45.803047 
L 461.308436 -45.803047 
L 460.719595 -45.803047 
L 460.130755 -45.803047 
L 459.541914 -45.803047 
L 458.953074 -45.803047 
L 458.364233 -45.803047 
z
"/>
    </defs>
    <g clip-path="url(#p0996782885)">
     <use xlink:href="#m6f4ef8f97a" x="0" y="409.123047" style="fill: #eb6834; fill-opacity: 0.55"/>
    </g>
   </g>
   <g id="matplotlib.axis_5">
    <g id="xtick_16">
     <g id="line2d_21">
      <g>
       <use xlink:href="#ma83ca8241d" x="360.027866" y="363.32" style="fill: #52514e; stroke: #52514e; stroke-width: 0.8"/>
      </g>
     </g>
     <g id="text_29">
      <!-- 0 -->
      <g style="fill: #52514e" transform="translate(356.528491 378.677422) scale(0.11 -0.11)">
       <use xlink:href="#DejaVuSans-13"/>
      </g>
     </g>
    </g>
    <g id="xtick_17">
     <g id="line2d_22">
      <g>
       <use xlink:href="#ma83ca8241d" x="399.185761" y="363.32" style="fill: #52514e; stroke: #52514e; stroke-width: 0.8"/>
      </g>
     </g>
     <g id="text_30">
      <!-- 2 -->
      <g style="fill: #52514e" transform="translate(395.686386 378.677422) scale(0.11 -0.11)">
       <use xlink:href="#DejaVuSans-15"/>
      </g>
     </g>
    </g>
    <g id="xtick_18">
     <g id="line2d_23">
      <g>
       <use xlink:href="#ma83ca8241d" x="438.343655" y="363.32" style="fill: #52514e; stroke: #52514e; stroke-width: 0.8"/>
      </g>
     </g>
     <g id="text_31">
      <!-- 4 -->
      <g style="fill: #52514e" transform="translate(434.84428 378.677422) scale(0.11 -0.11)">
       <use xlink:href="#DejaVuSans-17"/>
      </g>
     </g>
    </g>
    <g id="xtick_19">
     <g id="line2d_24">
      <g>
       <use xlink:href="#ma83ca8241d" x="477.50155" y="363.32" style="fill: #52514e; stroke: #52514e; stroke-width: 0.8"/>
      </g>
     </g>
     <g id="text_32">
      <!-- 6 -->
      <g style="fill: #52514e" transform="translate(474.002175 378.677422) scale(0.11 -0.11)">
       <use xlink:href="#DejaVuSans-19"/>
      </g>
     </g>
    </g>
    <g id="xtick_20">
     <g id="line2d_25">
      <g>
       <use xlink:href="#ma83ca8241d" x="516.659445" y="363.32" style="fill: #52514e; stroke: #52514e; stroke-width: 0.8"/>
      </g>
     </g>
     <g id="text_33">
      <!-- 8 -->
      <g style="fill: #52514e" transform="translate(513.16007 378.677422) scale(0.11 -0.11)">
       <use xlink:href="#DejaVuSans-1b"/>
      </g>
     </g>
    </g>
    <g id="xtick_21">
     <g id="line2d_26">
      <g>
       <use xlink:href="#ma83ca8241d" x="555.81734" y="363.32" style="fill: #52514e; stroke: #52514e; stroke-width: 0.8"/>
      </g>
     </g>
     <g id="text_34">
      <!-- 10 -->
      <g style="fill: #52514e" transform="translate(548.81859 378.677422) scale(0.11 -0.11)">
       <use xlink:href="#DejaVuSans-14"/>
       <use xlink:href="#DejaVuSans-13" transform="translate(63.625 0)"/>
      </g>
     </g>
    </g>
    <g id="xtick_22">
     <g id="line2d_27">
      <g>
       <use xlink:href="#ma83ca8241d" x="594.975234" y="363.32" style="fill: #52514e; stroke: #52514e; stroke-width: 0.8"/>
      </g>
     </g>
     <g id="text_35">
      <!-- 12 -->
      <g style="fill: #52514e" transform="translate(587.976484 378.677422) scale(0.11 -0.11)">
       <use xlink:href="#DejaVuSans-14"/>
       <use xlink:href="#DejaVuSans-15" transform="translate(63.625 0)"/>
      </g>
     </g>
    </g>
    <g id="text_36">
     <!-- Inter-response time, $\tau$ (s) -->
     <g style="fill: #0b0b0b" transform="translate(384.03155 395.2) scale(0.13 -0.13)">
      <defs>
       <path id="DejaVuSans-Bold-2c" d="M 588 4666 
L 1791 4666 
L 1791 0 
L 588 0 
L 588 4666 
z
" transform="scale(0.015625)"/>
       <path id="DejaVuSans-Bold-10" d="M 347 2297 
L 2309 2297 
L 2309 1388 
L 347 1388 
L 347 2297 
z
" transform="scale(0.015625)"/>
       <path id="DejaVuSans-Bold-f" d="M 653 1209 
L 1778 1209 
L 1778 256 
L 1006 -909 
L 341 -909 
L 653 256 
L 653 1209 
z
" transform="scale(0.015625)"/>
      </defs>
      <use xlink:href="#DejaVuSans-Bold-2c" transform="translate(0 0.015625)"/>
      <use xlink:href="#DejaVuSans-Bold-51" transform="translate(37.207031 0.015625)"/>
      <use xlink:href="#DejaVuSans-Bold-57" transform="translate(108.398438 0.015625)"/>
      <use xlink:href="#DejaVuSans-Bold-48" transform="translate(156.201172 0.015625)"/>
      <use xlink:href="#DejaVuSans-Bold-55" transform="translate(224.023438 0.015625)"/>
      <use xlink:href="#DejaVuSans-Bold-10" transform="translate(273.339844 0.015625)"/>
      <use xlink:href="#DejaVuSans-Bold-55" transform="translate(314.84375 0.015625)"/>
      <use xlink:href="#DejaVuSans-Bold-48" transform="translate(364.160156 0.015625)"/>
      <use xlink:href="#DejaVuSans-Bold-56" transform="translate(431.982422 0.015625)"/>
      <use xlink:href="#DejaVuSans-Bold-53" transform="translate(491.503906 0.015625)"/>
      <use xlink:href="#DejaVuSans-Bold-52" transform="translate(563.085938 0.015625)"/>
      <use xlink:href="#DejaVuSans-Bold-51" transform="translate(631.787109 0.015625)"/>
      <use xlink:href="#DejaVuSans-Bold-56" transform="translate(702.978516 0.015625)"/>
      <use xlink:href="#DejaVuSans-Bold-48" transform="translate(762.5 0.015625)"/>
      <use xlink:href="#DejaVuSans-Bold-3" transform="translate(830.322266 0.015625)"/>
      <use xlink:href="#DejaVuSans-Bold-57" transform="translate(865.136719 0.015625)"/>
      <use xlink:href="#DejaVuSans-Bold-4c" transform="translate(912.939453 0.015625)"/>
      <use xlink:href="#DejaVuSans-Bold-50" transform="translate(947.216797 0.015625)"/>
      <use xlink:href="#DejaVuSans-Bold-48" transform="translate(1051.416016 0.015625)"/>
      <use xlink:href="#DejaVuSans-Bold-f" transform="translate(1119.238281 0.015625)"/>
      <use xlink:href="#DejaVuSans-Bold-3" transform="translate(1157.226562 0.015625)"/>
      <use xlink:href="#DejaVuSans-Oblique-358" transform="translate(1192.041016 0.015625)"/>
      <use xlink:href="#DejaVuSans-Bold-3" transform="translate(1252.246094 0.015625)"/>
      <use xlink:href="#DejaVuSans-Bold-b" transform="translate(1287.060547 0.015625)"/>
      <use xlink:href="#DejaVuSans-Bold-56" transform="translate(1332.763672 0.015625)"/>
      <use xlink:href="#DejaVuSans-Bold-c" transform="translate(1392.285156 0.015625)"/>
     </g>
    </g>
   </g>
   <g id="matplotlib.axis_6">
    <g id="ytick_6">
     <g id="line2d_28">
      <g>
       <use xlink:href="#ma42c85832e" x="360.027866" y="363.32" style="fill: #52514e; stroke: #52514e; stroke-width: 0.8"/>
      </g>
     </g>
     <g id="text_37">
      <!-- 0.0 -->
      <g style="fill: #52514e" transform="translate(335.534428 367.498711) scale(0.11 -0.11)">
       <use xlink:href="#DejaVuSans-13"/>
       <use xlink:href="#DejaVuSans-11" transform="translate(63.625 0)"/>
       <use xlink:href="#DejaVuSans-13" transform="translate(95.40625 0)"/>
      </g>
     </g>
    </g>
    <g id="ytick_7">
     <g id="line2d_29">
      <g>
       <use xlink:href="#ma42c85832e" x="360.027866" y="331.379916" style="fill: #52514e; stroke: #52514e; stroke-width: 0.8"/>
      </g>
     </g>
     <g id="text_38">
      <!-- 0.1 -->
      <g style="fill: #52514e" transform="translate(335.534428 335.558627) scale(0.11 -0.11)">
       <use xlink:href="#DejaVuSans-13"/>
       <use xlink:href="#DejaVuSans-11" transform="translate(63.625 0)"/>
       <use xlink:href="#DejaVuSans-14" transform="translate(95.40625 0)"/>
      </g>
     </g>
    </g>
    <g id="ytick_8">
     <g id="line2d_30">
      <g>
       <use xlink:href="#ma42c85832e" x="360.027866" y="299.439833" style="fill: #52514e; stroke: #52514e; stroke-width: 0.8"/>
      </g>
     </g>
     <g id="text_39">
      <!-- 0.2 -->
      <g style="fill: #52514e" transform="translate(335.534428 303.618544) scale(0.11 -0.11)">
       <use xlink:href="#DejaVuSans-13"/>
       <use xlink:href="#DejaVuSans-11" transform="translate(63.625 0)"/>
       <use xlink:href="#DejaVuSans-15" transform="translate(95.40625 0)"/>
      </g>
     </g>
    </g>
    <g id="ytick_9">
     <g id="line2d_31">
      <g>
       <use xlink:href="#ma42c85832e" x="360.027866" y="267.499749" style="fill: #52514e; stroke: #52514e; stroke-width: 0.8"/>
      </g>
     </g>
     <g id="text_40">
      <!-- 0.3 -->
      <g style="fill: #52514e" transform="translate(335.534428 271.67846) scale(0.11 -0.11)">
       <use xlink:href="#DejaVuSans-13"/>
       <use xlink:href="#DejaVuSans-11" transform="translate(63.625 0)"/>
       <use xlink:href="#DejaVuSans-16" transform="translate(95.40625 0)"/>
      </g>
     </g>
    </g>
    <g id="ytick_10">
     <g id="line2d_32">
      <g>
       <use xlink:href="#ma42c85832e" x="360.027866" y="235.559666" style="fill: #52514e; stroke: #52514e; stroke-width: 0.8"/>
      </g>
     </g>
     <g id="text_41">
      <!-- 0.4 -->
      <g style="fill: #52514e" transform="translate(335.534428 239.738377) scale(0.11 -0.11)">
       <use xlink:href="#DejaVuSans-13"/>
       <use xlink:href="#DejaVuSans-11" transform="translate(63.625 0)"/>
       <use xlink:href="#DejaVuSans-17" transform="translate(95.40625 0)"/>
      </g>
     </g>
    </g>
    <g id="ytick_11">
     <g id="line2d_33">
      <g>
       <use xlink:href="#ma42c85832e" x="360.027866" y="203.619582" style="fill: #52514e; stroke: #52514e; stroke-width: 0.8"/>
      </g>
     </g>
     <g id="text_42">
      <!-- 0.5 -->
      <g style="fill: #52514e" transform="translate(335.534428 207.798293) scale(0.11 -0.11)">
       <use xlink:href="#DejaVuSans-13"/>
       <use xlink:href="#DejaVuSans-11" transform="translate(63.625 0)"/>
       <use xlink:href="#DejaVuSans-18" transform="translate(95.40625 0)"/>
      </g>
     </g>
    </g>
    <g id="text_43">
     <!-- $f(\tau)$ -->
     <g style="fill: #0b0b0b" transform="translate(328.411382 289.988779) rotate(-90) scale(0.13 -0.13)">
      <defs>
       <path id="DejaVuSans-Oblique-49" d="M 3059 4863 
L 2969 4384 
L 2419 4384 
Q 2106 4384 1964 4261 
Q 1822 4138 1753 3809 
L 1691 3500 
L 2638 3500 
L 2553 3053 
L 1606 3053 
L 1013 0 
L 434 0 
L 1031 3053 
L 481 3053 
L 563 3500 
L 1113 3500 
L 1159 3744 
Q 1278 4363 1576 4613 
Q 1875 4863 2516 4863 
L 3059 4863 
z
" transform="scale(0.015625)"/>
      </defs>
      <use xlink:href="#DejaVuSans-Oblique-49" transform="translate(0 0.015625)"/>
      <use xlink:href="#DejaVuSans-b" transform="translate(35.205078 0.015625)"/>
      <use xlink:href="#DejaVuSans-Oblique-358" transform="translate(74.21875 0.015625)"/>
      <use xlink:href="#DejaVuSans-c" transform="translate(134.423828 0.015625)"/>
     </g>
    </g>
   </g>
   <g id="line2d_34">
    <path d="M 360.027866 203.619582 
L 362.972069 215.186825 
L 365.916271 225.916242 
L 368.860474 235.868518 
L 371.804676 245.099941 
L 374.748879 253.662725 
L 377.693082 261.605298 
L 380.637284 268.972584 
L 383.581487 275.806251 
L 386.525689 282.144949 
L 389.469892 288.02453 
L 392.414095 293.478248 
L 395.358297 298.536948 
L 398.89134 304.126102 
L 402.424384 309.233052 
L 405.957427 313.8994 
L 409.49047 318.163159 
L 413.023513 322.059063 
L 416.556556 325.618848 
L 420.089599 328.871513 
L 423.622642 331.843554 
L 427.155686 334.559183 
L 431.277569 337.432744 
L 435.399453 340.019201 
L 439.521336 342.347239 
L 443.64322 344.442678 
L 448.353944 346.582352 
L 453.064668 348.479502 
L 458.364233 350.358007 
L 463.663798 351.998731 
L 469.552203 353.579356 
L 476.029449 355.064384 
L 482.506695 356.32301 
L 489.572781 357.478258 
L 497.816548 358.587268 
L 506.649156 359.542967 
L 516.659445 360.394985 
L 527.847415 361.121918 
L 540.801906 361.741053 
L 556.7006 362.267947 
L 576.132338 362.679494 
L 594.975234 362.924142 
L 594.975234 362.924142 
" clip-path="url(#p0996782885)" style="fill: none; stroke: #0b0b0b; stroke-width: 2.3; stroke-linecap: square"/>
   </g>
   <g id="line2d_35">
    <path d="M 399.185761 363.32 
L 399.185761 194.037557 
" clip-path="url(#p0996782885)" style="fill: none; stroke-dasharray: 6.72,5.6; stroke-dashoffset: 0; stroke: #2a78d6; stroke-width: 1.4"/>
   </g>
   <g id="patch_26">
    <path d="M 360.027866 363.32 
L 360.027866 194.037557 
" style="fill: none; stroke: #52514e; stroke-width: 1.1; stroke-linejoin: miter; stroke-linecap: square"/>
   </g>
   <g id="patch_27">
    <path d="M 360.027866 363.32 
L 594.975234 363.32 
" style="fill: none; stroke: #52514e; stroke-width: 1.1; stroke-linejoin: miter; stroke-linecap: square"/>
   </g>
   <g id="text_44">
    <!-- $\mathrm{mean} = 1/\lambda = 2$ s -->
    <g style="fill: #2a78d6" transform="translate(404.080498 221.181607) scale(0.105 -0.105)">
     <defs>
      <path id="DejaVuSans-12" d="M 1625 4666 
L 2156 4666 
L 531 -594 
L 0 -594 
L 1625 4666 
z
" transform="scale(0.015625)"/>
     </defs>
     <use xlink:href="#DejaVuSans-50" transform="translate(0 0.015625)"/>
     <use xlink:href="#DejaVuSans-48" transform="translate(97.412109 0.015625)"/>
     <use xlink:href="#DejaVuSans-44" transform="translate(158.935547 0.015625)"/>
     <use xlink:href="#DejaVuSans-51" transform="translate(220.214844 0.015625)"/>
     <use xlink:href="#DejaVuSans-20" transform="translate(303.076172 0.015625)"/>
     <use xlink:href="#DejaVuSans-14" transform="translate(406.347656 0.015625)"/>
     <use xlink:href="#DejaVuSans-12" transform="translate(469.970703 0.015625)"/>
     <use xlink:href="#DejaVuSans-Oblique-34f" transform="translate(503.662109 0.015625)"/>
     <use xlink:href="#DejaVuSans-20" transform="translate(582.324219 0.015625)"/>
     <use xlink:href="#DejaVuSans-15" transform="translate(685.595703 0.015625)"/>
     <use xlink:href="#DejaVuSans-Bold-3" transform="translate(749.21875 0.015625)"/>
     <use xlink:href="#DejaVuSans-Bold-56" transform="translate(784.033203 0.015625)"/>
    </g>
   </g>
   <g id="patch_28">
    <path d="M 528.330459 311.615262 
Q 501.731633 333.322939 475.132806 355.030616 
" style="fill: none; stroke: #eb6834; stroke-linecap: round"/>
   </g>
   <g id="text_45">
    <!-- $P(\tau &gt; 5) = 0.082$ -->
    <g style="fill: #eb6834" transform="translate(497.080498 305.82785) scale(0.105 -0.105)">
     <defs>
      <path id="DejaVuSans-21" d="M 678 3150 
L 678 3719 
L 4684 2266 
L 4684 1747 
L 678 294 
L 678 863 
L 3897 2003 
L 678 3150 
z
" transform="scale(0.015625)"/>
     </defs>
     <use xlink:href="#DejaVuSans-Oblique-33" transform="translate(0 0.125)"/>
     <use xlink:href="#DejaVuSans-b" transform="translate(60.302734 0.125)"/>
     <use xlink:href="#DejaVuSans-Oblique-358" transform="translate(99.316406 0.125)"/>
     <use xlink:href="#DejaVuSans-21" transform="translate(179.003906 0.125)"/>
     <use xlink:href="#DejaVuSans-18" transform="translate(282.275391 0.125)"/>
     <use xlink:href="#DejaVuSans-c" transform="translate(345.898438 0.125)"/>
     <use xlink:href="#DejaVuSans-20" transform="translate(404.394531 0.125)"/>
     <use xlink:href="#DejaVuSans-13" transform="translate(507.666016 0.125)"/>
     <use xlink:href="#DejaVuSans-11" transform="translate(571.289062 0.125)"/>
     <use xlink:href="#DejaVuSans-13" transform="translate(603.076172 0.125)"/>
     <use xlink:href="#DejaVuSans-1b" transform="translate(666.699219 0.125)"/>
     <use xlink:href="#DejaVuSans-15" transform="translate(730.322266 0.125)"/>
    </g>
   </g>
   <g id="text_46">
    <!-- C.  Inter-response times: Exponential($\lambda$) -->
    <g style="fill: #0b0b0b" transform="translate(360.027866 184.037557) scale(0.13 -0.13)">
     <defs>
      <path id="DejaVuSans-Bold-28" d="M 588 4666 
L 3834 4666 
L 3834 3756 
L 1791 3756 
L 1791 2888 
L 3713 2888 
L 3713 1978 
L 1791 1978 
L 1791 909 
L 3903 909 
L 3903 0 
L 588 0 
L 588 4666 
z
" transform="scale(0.015625)"/>
      <path id="DejaVuSans-Bold-5b" d="M 1422 1791 
L 159 3500 
L 1344 3500 
L 2059 2463 
L 2784 3500 
L 3969 3500 
L 2706 1797 
L 4031 0 
L 2847 0 
L 2059 1106 
L 1281 0 
L 97 0 
L 1422 1791 
z
" transform="scale(0.015625)"/>
     </defs>
     <use xlink:href="#DejaVuSans-Bold-26" transform="translate(0 0.015625)"/>
     <use xlink:href="#DejaVuSans-Bold-11" transform="translate(73.388672 0.015625)"/>
     <use xlink:href="#DejaVuSans-Bold-3" transform="translate(111.376953 0.015625)"/>
     <use xlink:href="#DejaVuSans-Bold-3" transform="translate(146.191406 0.015625)"/>
     <use xlink:href="#DejaVuSans-Bold-2c" transform="translate(181.005859 0.015625)"/>
     <use xlink:href="#DejaVuSans-Bold-51" transform="translate(218.212891 0.015625)"/>
     <use xlink:href="#DejaVuSans-Bold-57" transform="translate(289.404297 0.015625)"/>
     <use xlink:href="#DejaVuSans-Bold-48" transform="translate(337.207031 0.015625)"/>
     <use xlink:href="#DejaVuSans-Bold-55" transform="translate(405.029297 0.015625)"/>
     <use xlink:href="#DejaVuSans-Bold-10" transform="translate(454.345703 0.015625)"/>
     <use xlink:href="#DejaVuSans-Bold-55" transform="translate(495.849609 0.015625)"/>
     <use xlink:href="#DejaVuSans-Bold-48" transform="translate(545.166016 0.015625)"/>
     <use xlink:href="#DejaVuSans-Bold-56" transform="translate(612.988281 0.015625)"/>
     <use xlink:href="#DejaVuSans-Bold-53" transform="translate(672.509766 0.015625)"/>
     <use xlink:href="#DejaVuSans-Bold-52" transform="translate(744.091797 0.015625)"/>
     <use xlink:href="#DejaVuSans-Bold-51" transform="translate(812.792969 0.015625)"/>
     <use xlink:href="#DejaVuSans-Bold-56" transform="translate(883.984375 0.015625)"/>
     <use xlink:href="#DejaVuSans-Bold-48" transform="translate(943.505859 0.015625)"/>
     <use xlink:href="#DejaVuSans-Bold-3" transform="translate(1011.328125 0.015625)"/>
     <use xlink:href="#DejaVuSans-Bold-57" transform="translate(1046.142578 0.015625)"/>
     <use xlink:href="#DejaVuSans-Bold-4c" transform="translate(1093.945312 0.015625)"/>
     <use xlink:href="#DejaVuSans-Bold-50" transform="translate(1128.222656 0.015625)"/>
     <use xlink:href="#DejaVuSans-Bold-48" transform="translate(1232.421875 0.015625)"/>
     <use xlink:href="#DejaVuSans-Bold-56" transform="translate(1300.244141 0.015625)"/>
     <use xlink:href="#DejaVuSans-Bold-1d" transform="translate(1359.765625 0.015625)"/>
     <use xlink:href="#DejaVuSans-Bold-3" transform="translate(1399.755859 0.015625)"/>
     <use xlink:href="#DejaVuSans-Bold-28" transform="translate(1434.570312 0.015625)"/>
     <use xlink:href="#DejaVuSans-Bold-5b" transform="translate(1502.880859 0.015625)"/>
     <use xlink:href="#DejaVuSans-Bold-53" transform="translate(1567.382812 0.015625)"/>
     <use xlink:href="#DejaVuSans-Bold-52" transform="translate(1638.964844 0.015625)"/>
     <use xlink:href="#DejaVuSans-Bold-51" transform="translate(1707.666016 0.015625)"/>
     <use xlink:href="#DejaVuSans-Bold-48" transform="translate(1778.857422 0.015625)"/>
     <use xlink:href="#DejaVuSans-Bold-51" transform="translate(1846.679688 0.015625)"/>
     <use xlink:href="#DejaVuSans-Bold-57" transform="translate(1917.871094 0.015625)"/>
     <use xlink:href="#DejaVuSans-Bold-4c" transform="translate(1965.673828 0.015625)"/>
     <use xlink:href="#DejaVuSans-Bold-44" transform="translate(1999.951172 0.015625)"/>
     <use xlink:href="#DejaVuSans-Bold-4f" transform="translate(2067.431641 0.015625)"/>
     <use xlink:href="#DejaVuSans-Bold-b" transform="translate(2101.708984 0.015625)"/>
     <use xlink:href="#DejaVuSans-Oblique-34f" transform="translate(2147.412109 0.015625)"/>
     <use xlink:href="#DejaVuSans-Bold-c" transform="translate(2206.591797 0.015625)"/>
    </g>
   </g>
  </g>
 </g>
 <defs>
  <clipPath id="p7ed166c7b1">
   <rect x="59.295234" y="30.68" width="535.68" height="84.641221"/>
  </clipPath>
  <clipPath id="pcf2b39dd7d">
   <rect x="59.295234" y="194.037557" width="234.947368" height="169.282443"/>
  </clipPath>
  <clipPath id="p0996782885">
   <rect x="360.027866" y="194.037557" width="234.947368" height="169.282443"/>
  </clipPath>
 </defs>
</svg>
