<?xml version="1.0" encoding="utf-8" standalone="no"?>
<!DOCTYPE svg PUBLIC "-//W3C//DTD SVG 1.1//EN"
  "http://www.w3.org/Graphics/SVG/1.1/DTD/svg11.dtd">
<svg xmlns:xlink="http://www.w3.org/1999/xlink" width="528.48pt" height="195.921891pt" viewBox="0 0 528.48 195.921891" xmlns="http://www.w3.org/2000/svg" version="1.1">
 <metadata>
  <rdf:RDF xmlns:dc="http://purl.org/dc/elements/1.1/" xmlns:cc="http://creativecommons.org/ns#" xmlns:rdf="http://www.w3.org/1999/02/22-rdf-syntax-ns#">
   <cc:Work>
    <dc:type rdf:resource="http://purl.org/dc/dcmitype/StillImage"/>
    <dc:date>2026-07-30T11:31:09.626894</dc:date>
    <dc:format>image/svg+xml</dc:format>
    <dc:creator>
     <cc:Agent>
      <dc:title>Matplotlib v3.11.0, https://matplotlib.org/</dc:title>
     </cc:Agent>
    </dc:creator>
   </cc:Work>
  </rdf:RDF>
 </metadata>
 <defs>
  <style type="text/css">*{stroke-linejoin: round; stroke-linecap: butt}</style>
 </defs>
 <g id="figure_1">
  <g id="patch_1">
   <path d="M 0 195.921891 
L 528.48 195.921891 
L 528.48 0 
L 0 0 
z
" style="fill: #ffffff"/>
  </g>
  <g id="axes_1">
   <g id="patch_2">
    <path d="M 31.0752 98.952291 
Q 105.33312 98.952291 177.578579 98.952291 
" clip-path="url(#p152e39af94)" style="fill: none; stroke: #000000; stroke-width: 1.8; stroke-linecap: round"/>
    <path d="M 170.378579 95.352291 
L 177.578579 98.952291 
L 170.378579 102.552291 
z
" clip-path="url(#p152e39af94)" style="stroke: #000000; stroke-width: 1.8; stroke-linecap: round"/>
   </g>
   <g id="patch_3">
    <path d="M 308.33856 98.952291 
Q 392.73408 98.952291 475.117139 98.952291 
" clip-path="url(#p152e39af94)" style="fill: none; stroke: #000000; stroke-width: 1.8; stroke-linecap: round"/>
    <path d="M 467.917139 95.352291 
L 475.117139 98.952291 
L 467.917139 102.552291 
z
" clip-path="url(#p152e39af94)" style="stroke: #000000; stroke-width: 1.8; stroke-linecap: round"/>
   </g>
   <g id="patch_4">
    <path d="M 243.9648 157.243491 
C 259.423807 157.243491 274.251734 151.101562 285.182903 140.170393 
C 296.114071 129.239225 302.256 114.411298 302.256 98.952291 
C 302.256 83.493284 296.114071 68.665356 285.182903 57.734188 
C 274.251734 46.803019 259.423807 40.661091 243.9648 40.661091 
C 228.505793 40.661091 213.677866 46.803019 202.746697 57.734188 
C 191.815529 68.665356 185.6736 83.493284 185.6736 98.952291 
C 185.6736 114.411298 191.815529 129.239225 202.746697 140.170393 
C 213.677866 151.101562 228.505793 157.243491 243.9648 157.243491 
z
" clip-path="url(#p152e39af94)" style="fill: #ffffff; stroke: #000000; stroke-width: 1.8; stroke-linejoin: miter"/>
   </g>
   <g id="text_1">
    <!-- $\lambda P^*$ -->
    <g transform="translate(31.0752 80.863078) scale(0.12 -0.12)">
     <defs>
      <path id="DejaVuSans-Oblique-34f" d="M 2350 4316 
L 3125 0 
L 2516 0 
L 2038 2588 
L 328 0 
L -281 0 
L 1903 3356 
L 1794 3975 
Q 1725 4369 1391 4369 
L 1091 4369 
L 1184 4863 
L 1550 4856 
Q 2253 4847 2350 4316 
z
" transform="scale(0.015625)"/>
      <path id="DejaVuSans-Oblique-33" d="M 1081 4666 
L 2541 4666 
Q 3178 4666 3512 4369 
Q 3847 4072 3847 3500 
Q 3847 2731 3353 2303 
Q 2859 1875 1966 1875 
L 1172 1875 
L 806 0 
L 172 0 
L 1081 4666 
z
M 1613 4147 
L 1275 2394 
L 2069 2394 
Q 2606 2394 2893 2669 
Q 3181 2944 3181 3456 
Q 3181 3784 2986 3965 
Q 2791 4147 2438 4147 
L 1613 4147 
z
" transform="scale(0.015625)"/>
      <path id="DejaVuSans-d" d="M 3009 3897 
L 1888 3291 
L 3009 2681 
L 2828 2375 
L 1778 3009 
L 1778 1831 
L 1422 1831 
L 1422 3009 
L 372 2375 
L 191 2681 
L 1313 3291 
L 191 3897 
L 372 4206 
L 1422 3572 
L 1422 4750 
L 1778 4750 
L 1778 3572 
L 2828 4206 
L 3009 3897 
z
" transform="scale(0.015625)"/>
     </defs>
     <use xlink:href="#DejaVuSans-Oblique-34f" transform="translate(0 0.746875)"/>
     <use xlink:href="#DejaVuSans-Oblique-33" transform="translate(59.179688 0.746875)"/>
     <use xlink:href="#DejaVuSans-d" transform="translate(140.136888 42.046875) scale(0.7)"/>
    </g>
   </g>
   <g id="text_2">
    <!-- $\lambda P(t)$ -->
    <g transform="translate(448.6896 80.863078) scale(0.12 -0.12)">
     <defs>
      <path id="DejaVuSans-b" d="M 1984 4856 
Q 1566 4138 1362 3434 
Q 1159 2731 1159 2009 
Q 1159 1288 1364 580 
Q 1569 -128 1984 -844 
L 1484 -844 
Q 1016 -109 783 600 
Q 550 1309 550 2009 
Q 550 2706 781 3412 
Q 1013 4119 1484 4856 
L 1984 4856 
z
" transform="scale(0.015625)"/>
      <path id="DejaVuSans-Oblique-57" d="M 2706 3500 
L 2619 3053 
L 1472 3053 
L 1100 1153 
Q 1081 1047 1072 975 
Q 1063 903 1063 863 
Q 1063 663 1183 572 
Q 1303 481 1569 481 
L 2150 481 
L 2053 0 
L 1503 0 
Q 991 0 739 200 
Q 488 400 488 806 
Q 488 878 497 964 
Q 506 1050 525 1153 
L 897 3053 
L 409 3053 
L 500 3500 
L 978 3500 
L 1172 4494 
L 1747 4494 
L 1556 3500 
L 2706 3500 
z
" transform="scale(0.015625)"/>
      <path id="DejaVuSans-c" d="M 513 4856 
L 1013 4856 
Q 1481 4119 1714 3412 
Q 1947 2706 1947 2009 
Q 1947 1309 1714 600 
Q 1481 -109 1013 -844 
L 513 -844 
Q 928 -128 1133 580 
Q 1338 1288 1338 2009 
Q 1338 2731 1133 3434 
Q 928 4138 513 4856 
z
" transform="scale(0.015625)"/>
     </defs>
     <use xlink:href="#DejaVuSans-Oblique-34f" transform="translate(0 0.015625)"/>
     <use xlink:href="#DejaVuSans-Oblique-33" transform="translate(59.179688 0.015625)"/>
     <use xlink:href="#DejaVuSans-b" transform="translate(119.482422 0.015625)"/>
     <use xlink:href="#DejaVuSans-Oblique-57" transform="translate(158.496094 0.015625)"/>
     <use xlink:href="#DejaVuSans-c" transform="translate(197.705078 0.015625)"/>
    </g>
   </g>
   <g id="text_3">
    <!-- Flow diagram: problem behavior under a token economy -->
    <g transform="translate(48.285352 21.057891) scale(0.135 -0.135)">
     <defs>
      <path id="DejaVuSans-Bold-29" d="M 588 4666 
L 3834 4666 
L 3834 3756 
L 1791 3756 
L 1791 2888 
L 3713 2888 
L 3713 1978 
L 1791 1978 
L 1791 0 
L 588 0 
L 588 4666 
z
" transform="scale(0.015625)"/>
      <path id="DejaVuSans-Bold-4f" d="M 538 4863 
L 1656 4863 
L 1656 0 
L 538 0 
L 538 4863 
z
" transform="scale(0.015625)"/>
      <path id="DejaVuSans-Bold-52" d="M 2203 2784 
Q 1831 2784 1636 2517 
Q 1441 2250 1441 1747 
Q 1441 1244 1636 976 
Q 1831 709 2203 709 
Q 2569 709 2762 976 
Q 2956 1244 2956 1747 
Q 2956 2250 2762 2517 
Q 2569 2784 2203 2784 
z
M 2203 3584 
Q 3106 3584 3614 3096 
Q 4122 2609 4122 1747 
Q 4122 884 3614 396 
Q 3106 -91 2203 -91 
Q 1297 -91 786 396 
Q 275 884 275 1747 
Q 275 2609 786 3096 
Q 1297 3584 2203 3584 
z
" transform="scale(0.015625)"/>
      <path id="DejaVuSans-Bold-5a" d="M 225 3500 
L 1313 3500 
L 1900 1088 
L 2491 3500 
L 3425 3500 
L 4013 1113 
L 4603 3500 
L 5691 3500 
L 4769 0 
L 3547 0 
L 2956 2406 
L 2369 0 
L 1147 0 
L 225 3500 
z
" transform="scale(0.015625)"/>
      <path id="DejaVuSans-Bold-3" transform="scale(0.015625)"/>
      <path id="DejaVuSans-Bold-47" d="M 2919 2988 
L 2919 4863 
L 4044 4863 
L 4044 0 
L 2919 0 
L 2919 506 
Q 2688 197 2409 53 
Q 2131 -91 1766 -91 
Q 1119 -91 703 423 
Q 288 938 288 1747 
Q 288 2556 703 3070 
Q 1119 3584 1766 3584 
Q 2128 3584 2408 3439 
Q 2688 3294 2919 2988 
z
M 2181 722 
Q 2541 722 2730 984 
Q 2919 1247 2919 1747 
Q 2919 2247 2730 2509 
Q 2541 2772 2181 2772 
Q 1825 2772 1636 2509 
Q 1447 2247 1447 1747 
Q 1447 1247 1636 984 
Q 1825 722 2181 722 
z
" transform="scale(0.015625)"/>
      <path id="DejaVuSans-Bold-4c" d="M 538 3500 
L 1656 3500 
L 1656 0 
L 538 0 
L 538 3500 
z
M 538 4863 
L 1656 4863 
L 1656 3950 
L 538 3950 
L 538 4863 
z
" transform="scale(0.015625)"/>
      <path id="DejaVuSans-Bold-44" d="M 2106 1575 
Q 1756 1575 1579 1456 
Q 1403 1338 1403 1106 
Q 1403 894 1545 773 
Q 1688 653 1941 653 
Q 2256 653 2472 879 
Q 2688 1106 2688 1447 
L 2688 1575 
L 2106 1575 
z
M 3816 1997 
L 3816 0 
L 2688 0 
L 2688 519 
Q 2463 200 2181 54 
Q 1900 -91 1497 -91 
Q 953 -91 614 226 
Q 275 544 275 1050 
Q 275 1666 698 1953 
Q 1122 2241 2028 2241 
L 2688 2241 
L 2688 2328 
Q 2688 2594 2478 2717 
Q 2269 2841 1825 2841 
Q 1466 2841 1156 2769 
Q 847 2697 581 2553 
L 581 3406 
Q 941 3494 1303 3539 
Q 1666 3584 2028 3584 
Q 2975 3584 3395 3211 
Q 3816 2838 3816 1997 
z
" transform="scale(0.015625)"/>
      <path id="DejaVuSans-Bold-4a" d="M 2919 594 
Q 2688 288 2409 144 
Q 2131 0 1766 0 
Q 1125 0 706 504 
Q 288 1009 288 1791 
Q 288 2575 706 3076 
Q 1125 3578 1766 3578 
Q 2131 3578 2409 3434 
Q 2688 3291 2919 2981 
L 2919 3500 
L 4044 3500 
L 4044 353 
Q 4044 -491 3511 -936 
Q 2978 -1381 1966 -1381 
Q 1638 -1381 1331 -1331 
Q 1025 -1281 716 -1178 
L 716 -306 
Q 1009 -475 1290 -558 
Q 1572 -641 1856 -641 
Q 2406 -641 2662 -400 
Q 2919 -159 2919 353 
L 2919 594 
z
M 2181 2772 
Q 1834 2772 1640 2515 
Q 1447 2259 1447 1791 
Q 1447 1309 1634 1061 
Q 1822 813 2181 813 
Q 2531 813 2725 1069 
Q 2919 1325 2919 1791 
Q 2919 2259 2725 2515 
Q 2531 2772 2181 2772 
z
" transform="scale(0.015625)"/>
      <path id="DejaVuSans-Bold-55" d="M 3138 2547 
Q 2991 2616 2845 2648 
Q 2700 2681 2553 2681 
Q 2122 2681 1889 2404 
Q 1656 2128 1656 1613 
L 1656 0 
L 538 0 
L 538 3500 
L 1656 3500 
L 1656 2925 
Q 1872 3269 2151 3426 
Q 2431 3584 2822 3584 
Q 2878 3584 2943 3579 
Q 3009 3575 3134 3559 
L 3138 2547 
z
" transform="scale(0.015625)"/>
      <path id="DejaVuSans-Bold-50" d="M 3781 2919 
Q 3994 3244 4286 3414 
Q 4578 3584 4928 3584 
Q 5531 3584 5847 3212 
Q 6163 2841 6163 2131 
L 6163 0 
L 5038 0 
L 5038 1825 
Q 5041 1866 5042 1909 
Q 5044 1953 5044 2034 
Q 5044 2406 4934 2573 
Q 4825 2741 4581 2741 
Q 4263 2741 4089 2478 
Q 3916 2216 3909 1719 
L 3909 0 
L 2784 0 
L 2784 1825 
Q 2784 2406 2684 2573 
Q 2584 2741 2328 2741 
Q 2006 2741 1831 2477 
Q 1656 2213 1656 1722 
L 1656 0 
L 531 0 
L 531 3500 
L 1656 3500 
L 1656 2988 
Q 1863 3284 2130 3434 
Q 2397 3584 2719 3584 
Q 3081 3584 3359 3409 
Q 3638 3234 3781 2919 
z
" transform="scale(0.015625)"/>
      <path id="DejaVuSans-Bold-1d" d="M 716 3500 
L 1844 3500 
L 1844 2291 
L 716 2291 
L 716 3500 
z
M 716 1209 
L 1844 1209 
L 1844 0 
L 716 0 
L 716 1209 
z
" transform="scale(0.015625)"/>
      <path id="DejaVuSans-Bold-53" d="M 1656 506 
L 1656 -1331 
L 538 -1331 
L 538 3500 
L 1656 3500 
L 1656 2988 
Q 1888 3294 2169 3439 
Q 2450 3584 2816 3584 
Q 3463 3584 3878 3070 
Q 4294 2556 4294 1747 
Q 4294 938 3878 423 
Q 3463 -91 2816 -91 
Q 2450 -91 2169 54 
Q 1888 200 1656 506 
z
M 2400 2772 
Q 2041 2772 1848 2508 
Q 1656 2244 1656 1747 
Q 1656 1250 1848 986 
Q 2041 722 2400 722 
Q 2759 722 2948 984 
Q 3138 1247 3138 1747 
Q 3138 2247 2948 2509 
Q 2759 2772 2400 2772 
z
" transform="scale(0.015625)"/>
      <path id="DejaVuSans-Bold-45" d="M 2400 722 
Q 2759 722 2948 984 
Q 3138 1247 3138 1747 
Q 3138 2247 2948 2509 
Q 2759 2772 2400 2772 
Q 2041 2772 1848 2508 
Q 1656 2244 1656 1747 
Q 1656 1250 1848 986 
Q 2041 722 2400 722 
z
M 1656 2988 
Q 1888 3294 2169 3439 
Q 2450 3584 2816 3584 
Q 3463 3584 3878 3070 
Q 4294 2556 4294 1747 
Q 4294 938 3878 423 
Q 3463 -91 2816 -91 
Q 2450 -91 2169 54 
Q 1888 200 1656 506 
L 1656 0 
L 538 0 
L 538 4863 
L 1656 4863 
L 1656 2988 
z
" transform="scale(0.015625)"/>
      <path id="DejaVuSans-Bold-48" d="M 4031 1759 
L 4031 1441 
L 1416 1441 
Q 1456 1047 1700 850 
Q 1944 653 2381 653 
Q 2734 653 3104 758 
Q 3475 863 3866 1075 
L 3866 213 
Q 3469 63 3072 -14 
Q 2675 -91 2278 -91 
Q 1328 -91 801 392 
Q 275 875 275 1747 
Q 275 2603 792 3093 
Q 1309 3584 2216 3584 
Q 3041 3584 3536 3087 
Q 4031 2591 4031 1759 
z
M 2881 2131 
Q 2881 2450 2695 2645 
Q 2509 2841 2209 2841 
Q 1884 2841 1681 2658 
Q 1478 2475 1428 2131 
L 2881 2131 
z
" transform="scale(0.015625)"/>
      <path id="DejaVuSans-Bold-4b" d="M 4056 2131 
L 4056 0 
L 2931 0 
L 2931 347 
L 2931 1625 
Q 2931 2084 2911 2256 
Q 2891 2428 2841 2509 
Q 2775 2619 2662 2680 
Q 2550 2741 2406 2741 
Q 2056 2741 1856 2470 
Q 1656 2200 1656 1722 
L 1656 0 
L 538 0 
L 538 4863 
L 1656 4863 
L 1656 2988 
Q 1909 3294 2193 3439 
Q 2478 3584 2822 3584 
Q 3428 3584 3742 3212 
Q 4056 2841 4056 2131 
z
" transform="scale(0.015625)"/>
      <path id="DejaVuSans-Bold-59" d="M 97 3500 
L 1216 3500 
L 2088 1081 
L 2956 3500 
L 4078 3500 
L 2700 0 
L 1472 0 
L 97 3500 
z
" transform="scale(0.015625)"/>
      <path id="DejaVuSans-Bold-58" d="M 500 1363 
L 500 3500 
L 1625 3500 
L 1625 3150 
Q 1625 2866 1622 2436 
Q 1619 2006 1619 1863 
Q 1619 1441 1641 1255 
Q 1663 1069 1716 984 
Q 1784 875 1895 815 
Q 2006 756 2150 756 
Q 2500 756 2700 1025 
Q 2900 1294 2900 1772 
L 2900 3500 
L 4019 3500 
L 4019 0 
L 2900 0 
L 2900 506 
Q 2647 200 2364 54 
Q 2081 -91 1741 -91 
Q 1134 -91 817 281 
Q 500 653 500 1363 
z
" transform="scale(0.015625)"/>
      <path id="DejaVuSans-Bold-51" d="M 4056 2131 
L 4056 0 
L 2931 0 
L 2931 347 
L 2931 1631 
Q 2931 2084 2911 2256 
Q 2891 2428 2841 2509 
Q 2775 2619 2662 2680 
Q 2550 2741 2406 2741 
Q 2056 2741 1856 2470 
Q 1656 2200 1656 1722 
L 1656 0 
L 538 0 
L 538 3500 
L 1656 3500 
L 1656 2988 
Q 1909 3294 2193 3439 
Q 2478 3584 2822 3584 
Q 3428 3584 3742 3212 
Q 4056 2841 4056 2131 
z
" transform="scale(0.015625)"/>
      <path id="DejaVuSans-Bold-57" d="M 1759 4494 
L 1759 3500 
L 2913 3500 
L 2913 2700 
L 1759 2700 
L 1759 1216 
Q 1759 972 1856 886 
Q 1953 800 2241 800 
L 2816 800 
L 2816 0 
L 1856 0 
Q 1194 0 917 276 
Q 641 553 641 1216 
L 641 2700 
L 84 2700 
L 84 3500 
L 641 3500 
L 641 4494 
L 1759 4494 
z
" transform="scale(0.015625)"/>
      <path id="DejaVuSans-Bold-4e" d="M 538 4863 
L 1656 4863 
L 1656 2216 
L 2944 3500 
L 4244 3500 
L 2534 1894 
L 4378 0 
L 3022 0 
L 1656 1459 
L 1656 0 
L 538 0 
L 538 4863 
z
" transform="scale(0.015625)"/>
      <path id="DejaVuSans-Bold-46" d="M 3366 3391 
L 3366 2478 
Q 3138 2634 2908 2709 
Q 2678 2784 2431 2784 
Q 1963 2784 1702 2511 
Q 1441 2238 1441 1747 
Q 1441 1256 1702 982 
Q 1963 709 2431 709 
Q 2694 709 2930 787 
Q 3166 866 3366 1019 
L 3366 103 
Q 3103 6 2833 -42 
Q 2563 -91 2291 -91 
Q 1344 -91 809 395 
Q 275 881 275 1747 
Q 275 2613 809 3098 
Q 1344 3584 2291 3584 
Q 2566 3584 2833 3536 
Q 3100 3488 3366 3391 
z
" transform="scale(0.015625)"/>
      <path id="DejaVuSans-Bold-5c" d="M 78 3500 
L 1197 3500 
L 2138 1125 
L 2938 3500 
L 4056 3500 
L 2584 -331 
Q 2363 -916 2067 -1148 
Q 1772 -1381 1288 -1381 
L 641 -1381 
L 641 -647 
L 991 -647 
Q 1275 -647 1404 -556 
Q 1534 -466 1606 -231 
L 1638 -134 
L 78 3500 
z
" transform="scale(0.015625)"/>
     </defs>
     <use xlink:href="#DejaVuSans-Bold-29"/>
     <use xlink:href="#DejaVuSans-Bold-4f" transform="translate(68.3125 0)"/>
     <use xlink:href="#DejaVuSans-Bold-52" transform="translate(102.59375 0)"/>
     <use xlink:href="#DejaVuSans-Bold-5a" transform="translate(171.296875 0)"/>
     <use xlink:href="#DejaVuSans-Bold-3" transform="translate(263.6875 0)"/>
     <use xlink:href="#DejaVuSans-Bold-47" transform="translate(298.5 0)"/>
     <use xlink:href="#DejaVuSans-Bold-4c" transform="translate(370.078125 0)"/>
     <use xlink:href="#DejaVuSans-Bold-44" transform="translate(404.359375 0)"/>
     <use xlink:href="#DejaVuSans-Bold-4a" transform="translate(471.84375 0)"/>
     <use xlink:href="#DejaVuSans-Bold-55" transform="translate(543.421875 0)"/>
     <use xlink:href="#DejaVuSans-Bold-44" transform="translate(592.734375 0)"/>
     <use xlink:href="#DejaVuSans-Bold-50" transform="translate(660.21875 0)"/>
     <use xlink:href="#DejaVuSans-Bold-1d" transform="translate(764.421875 0)"/>
     <use xlink:href="#DejaVuSans-Bold-3" transform="translate(804.40625 0)"/>
     <use xlink:href="#DejaVuSans-Bold-53" transform="translate(839.21875 0)"/>
     <use xlink:href="#DejaVuSans-Bold-55" transform="translate(910.796875 0)"/>
     <use xlink:href="#DejaVuSans-Bold-52" transform="translate(960.109375 0)"/>
     <use xlink:href="#DejaVuSans-Bold-45" transform="translate(1028.8125 0)"/>
     <use xlink:href="#DejaVuSans-Bold-4f" transform="translate(1100.390625 0)"/>
     <use xlink:href="#DejaVuSans-Bold-48" transform="translate(1134.671875 0)"/>
     <use xlink:href="#DejaVuSans-Bold-50" transform="translate(1202.5 0)"/>
     <use xlink:href="#DejaVuSans-Bold-3" transform="translate(1306.703125 0)"/>
     <use xlink:href="#DejaVuSans-Bold-45" transform="translate(1341.515625 0)"/>
     <use xlink:href="#DejaVuSans-Bold-48" transform="translate(1413.09375 0)"/>
     <use xlink:href="#DejaVuSans-Bold-4b" transform="translate(1480.921875 0)"/>
     <use xlink:href="#DejaVuSans-Bold-44" transform="translate(1552.109375 0)"/>
     <use xlink:href="#DejaVuSans-Bold-59" transform="translate(1619.59375 0)"/>
     <use xlink:href="#DejaVuSans-Bold-4c" transform="translate(1684.78125 0)"/>
     <use xlink:href="#DejaVuSans-Bold-52" transform="translate(1719.0625 0)"/>
     <use xlink:href="#DejaVuSans-Bold-55" transform="translate(1787.765625 0)"/>
     <use xlink:href="#DejaVuSans-Bold-3" transform="translate(1837.078125 0)"/>
     <use xlink:href="#DejaVuSans-Bold-58" transform="translate(1871.890625 0)"/>
     <use xlink:href="#DejaVuSans-Bold-51" transform="translate(1943.078125 0)"/>
     <use xlink:href="#DejaVuSans-Bold-47" transform="translate(2014.265625 0)"/>
     <use xlink:href="#DejaVuSans-Bold-48" transform="translate(2085.84375 0)"/>
     <use xlink:href="#DejaVuSans-Bold-55" transform="translate(2153.671875 0)"/>
     <use xlink:href="#DejaVuSans-Bold-3" transform="translate(2202.984375 0)"/>
     <use xlink:href="#DejaVuSans-Bold-44" transform="translate(2237.796875 0)"/>
     <use xlink:href="#DejaVuSans-Bold-3" transform="translate(2305.28125 0)"/>
     <use xlink:href="#DejaVuSans-Bold-57" transform="translate(2340.09375 0)"/>
     <use xlink:href="#DejaVuSans-Bold-52" transform="translate(2387.890625 0)"/>
     <use xlink:href="#DejaVuSans-Bold-4e" transform="translate(2456.59375 0)"/>
     <use xlink:href="#DejaVuSans-Bold-48" transform="translate(2520.40625 0)"/>
     <use xlink:href="#DejaVuSans-Bold-51" transform="translate(2588.234375 0)"/>
     <use xlink:href="#DejaVuSans-Bold-3" transform="translate(2659.421875 0)"/>
     <use xlink:href="#DejaVuSans-Bold-48" transform="translate(2694.234375 0)"/>
     <use xlink:href="#DejaVuSans-Bold-46" transform="translate(2762.0625 0)"/>
     <use xlink:href="#DejaVuSans-Bold-52" transform="translate(2821.34375 0)"/>
     <use xlink:href="#DejaVuSans-Bold-51" transform="translate(2890.046875 0)"/>
     <use xlink:href="#DejaVuSans-Bold-52" transform="translate(2961.234375 0)"/>
     <use xlink:href="#DejaVuSans-Bold-50" transform="translate(3029.9375 0)"/>
     <use xlink:href="#DejaVuSans-Bold-5c" transform="translate(3134.140625 0)"/>
    </g>
   </g>
   <g id="text_4">
    <!-- Problem -->
    <g transform="translate(224.544722 87.294009) scale(0.095 -0.095)">
     <defs>
      <path id="DejaVuSans-33" d="M 1259 4147 
L 1259 2394 
L 2053 2394 
Q 2494 2394 2734 2622 
Q 2975 2850 2975 3272 
Q 2975 3691 2734 3919 
Q 2494 4147 2053 4147 
L 1259 4147 
z
M 628 4666 
L 2053 4666 
Q 2838 4666 3239 4311 
Q 3641 3956 3641 3272 
Q 3641 2581 3239 2228 
Q 2838 1875 2053 1875 
L 1259 1875 
L 1259 0 
L 628 0 
L 628 4666 
z
" transform="scale(0.015625)"/>
      <path id="DejaVuSans-55" d="M 2631 2963 
Q 2534 3019 2420 3045 
Q 2306 3072 2169 3072 
Q 1681 3072 1420 2755 
Q 1159 2438 1159 1844 
L 1159 0 
L 581 0 
L 581 3500 
L 1159 3500 
L 1159 2956 
Q 1341 3275 1631 3429 
Q 1922 3584 2338 3584 
Q 2397 3584 2469 3576 
Q 2541 3569 2628 3553 
L 2631 2963 
z
" transform="scale(0.015625)"/>
      <path id="DejaVuSans-52" d="M 1959 3097 
Q 1497 3097 1228 2736 
Q 959 2375 959 1747 
Q 959 1119 1226 758 
Q 1494 397 1959 397 
Q 2419 397 2687 759 
Q 2956 1122 2956 1747 
Q 2956 2369 2687 2733 
Q 2419 3097 1959 3097 
z
M 1959 3584 
Q 2709 3584 3137 3096 
Q 3566 2609 3566 1747 
Q 3566 888 3137 398 
Q 2709 -91 1959 -91 
Q 1206 -91 779 398 
Q 353 888 353 1747 
Q 353 2609 779 3096 
Q 1206 3584 1959 3584 
z
" transform="scale(0.015625)"/>
      <path id="DejaVuSans-45" d="M 3116 1747 
Q 3116 2381 2855 2742 
Q 2594 3103 2138 3103 
Q 1681 3103 1420 2742 
Q 1159 2381 1159 1747 
Q 1159 1113 1420 752 
Q 1681 391 2138 391 
Q 2594 391 2855 752 
Q 3116 1113 3116 1747 
z
M 1159 2969 
Q 1341 3281 1617 3432 
Q 1894 3584 2278 3584 
Q 2916 3584 3314 3078 
Q 3713 2572 3713 1747 
Q 3713 922 3314 415 
Q 2916 -91 2278 -91 
Q 1894 -91 1617 61 
Q 1341 213 1159 525 
L 1159 0 
L 581 0 
L 581 4863 
L 1159 4863 
L 1159 2969 
z
" transform="scale(0.015625)"/>
      <path id="DejaVuSans-4f" d="M 603 4863 
L 1178 4863 
L 1178 0 
L 603 0 
L 603 4863 
z
" transform="scale(0.015625)"/>
      <path id="DejaVuSans-48" d="M 3597 1894 
L 3597 1613 
L 953 1613 
Q 991 1019 1311 708 
Q 1631 397 2203 397 
Q 2534 397 2845 478 
Q 3156 559 3463 722 
L 3463 178 
Q 3153 47 2828 -22 
Q 2503 -91 2169 -91 
Q 1331 -91 842 396 
Q 353 884 353 1716 
Q 353 2575 817 3079 
Q 1281 3584 2069 3584 
Q 2775 3584 3186 3129 
Q 3597 2675 3597 1894 
z
M 3022 2063 
Q 3016 2534 2758 2815 
Q 2500 3097 2075 3097 
Q 1594 3097 1305 2825 
Q 1016 2553 972 2059 
L 3022 2063 
z
" transform="scale(0.015625)"/>
      <path id="DejaVuSans-50" d="M 3328 2828 
Q 3544 3216 3844 3400 
Q 4144 3584 4550 3584 
Q 5097 3584 5394 3201 
Q 5691 2819 5691 2113 
L 5691 0 
L 5113 0 
L 5113 2094 
Q 5113 2597 4934 2840 
Q 4756 3084 4391 3084 
Q 3944 3084 3684 2787 
Q 3425 2491 3425 1978 
L 3425 0 
L 2847 0 
L 2847 2094 
Q 2847 2600 2669 2842 
Q 2491 3084 2119 3084 
Q 1678 3084 1418 2786 
Q 1159 2488 1159 1978 
L 1159 0 
L 581 0 
L 581 3500 
L 1159 3500 
L 1159 2956 
Q 1356 3278 1631 3431 
Q 1906 3584 2284 3584 
Q 2666 3584 2933 3390 
Q 3200 3197 3328 2828 
z
" transform="scale(0.015625)"/>
     </defs>
     <use xlink:href="#DejaVuSans-33"/>
     <use xlink:href="#DejaVuSans-55" transform="translate(58.546875 0)"/>
     <use xlink:href="#DejaVuSans-52" transform="translate(97.453125 0)"/>
     <use xlink:href="#DejaVuSans-45" transform="translate(158.640625 0)"/>
     <use xlink:href="#DejaVuSans-4f" transform="translate(222.125 0)"/>
     <use xlink:href="#DejaVuSans-48" transform="translate(249.90625 0)"/>
     <use xlink:href="#DejaVuSans-50" transform="translate(311.4375 0)"/>
    </g>
    <!-- behavior -->
    <g transform="translate(223.115269 102.494009) scale(0.095 -0.095)">
     <defs>
      <path id="DejaVuSans-4b" d="M 3513 2113 
L 3513 0 
L 2938 0 
L 2938 2094 
Q 2938 2591 2744 2837 
Q 2550 3084 2163 3084 
Q 1697 3084 1428 2787 
Q 1159 2491 1159 1978 
L 1159 0 
L 581 0 
L 581 4863 
L 1159 4863 
L 1159 2956 
Q 1366 3272 1645 3428 
Q 1925 3584 2291 3584 
Q 2894 3584 3203 3211 
Q 3513 2838 3513 2113 
z
" transform="scale(0.015625)"/>
      <path id="DejaVuSans-44" d="M 2194 1759 
Q 1497 1759 1228 1600 
Q 959 1441 959 1056 
Q 959 750 1161 570 
Q 1363 391 1709 391 
Q 2188 391 2477 730 
Q 2766 1069 2766 1631 
L 2766 1759 
L 2194 1759 
z
M 3341 1997 
L 3341 0 
L 2766 0 
L 2766 531 
Q 2569 213 2275 61 
Q 1981 -91 1556 -91 
Q 1019 -91 701 211 
Q 384 513 384 1019 
Q 384 1609 779 1909 
Q 1175 2209 1959 2209 
L 2766 2209 
L 2766 2266 
Q 2766 2663 2505 2880 
Q 2244 3097 1772 3097 
Q 1472 3097 1187 3025 
Q 903 2953 641 2809 
L 641 3341 
Q 956 3463 1253 3523 
Q 1550 3584 1831 3584 
Q 2591 3584 2966 3190 
Q 3341 2797 3341 1997 
z
" transform="scale(0.015625)"/>
      <path id="DejaVuSans-59" d="M 191 3500 
L 800 3500 
L 1894 563 
L 2988 3500 
L 3597 3500 
L 2284 0 
L 1503 0 
L 191 3500 
z
" transform="scale(0.015625)"/>
      <path id="DejaVuSans-4c" d="M 603 3500 
L 1178 3500 
L 1178 0 
L 603 0 
L 603 3500 
z
M 603 4863 
L 1178 4863 
L 1178 4134 
L 603 4134 
L 603 4863 
z
" transform="scale(0.015625)"/>
     </defs>
     <use xlink:href="#DejaVuSans-45"/>
     <use xlink:href="#DejaVuSans-48" transform="translate(63.484375 0)"/>
     <use xlink:href="#DejaVuSans-4b" transform="translate(125.015625 0)"/>
     <use xlink:href="#DejaVuSans-44" transform="translate(188.390625 0)"/>
     <use xlink:href="#DejaVuSans-59" transform="translate(249.671875 0)"/>
     <use xlink:href="#DejaVuSans-4c" transform="translate(308.859375 0)"/>
     <use xlink:href="#DejaVuSans-52" transform="translate(336.640625 0)"/>
     <use xlink:href="#DejaVuSans-55" transform="translate(397.828125 0)"/>
    </g>
    <!-- $P(t)$ -->
    <g transform="translate(235.5098 117.097291) scale(0.095 -0.095)">
     <use xlink:href="#DejaVuSans-Oblique-33" transform="translate(0 0.125)"/>
     <use xlink:href="#DejaVuSans-b" transform="translate(60.302734 0.125)"/>
     <use xlink:href="#DejaVuSans-Oblique-57" transform="translate(99.316406 0.125)"/>
     <use xlink:href="#DejaVuSans-c" transform="translate(138.525391 0.125)"/>
    </g>
   </g>
  </g>
 </g>
 <defs>
  <clipPath id="p152e39af94">
   <rect x="10.8" y="33.057891" width="506.88" height="152.064"/>
  </clipPath>
 </defs>
</svg>
